<svg width="404" height="60" viewBox="0 0 404 60" fill="none" xmlns="http://www.w3.org/2000/svg">
<line y1="29.5" x2="152" y2="29.5" stroke="#262626"/>
<path d="M193.269 47.8232C193.269 49.204 192.15 50.3232 190.769 50.3232H179.5C178.12 50.3232 177 49.204 177 47.8232V38.7158C177 35.4599 177.595 32.0839 178.777 28.5908L178.778 28.5879C179.993 25.0629 181.638 21.7397 183.711 18.6191V18.6172C185.51 15.925 187.494 13.5878 189.665 11.6084C190.499 10.8489 191.728 10.8004 192.643 11.4102L198.669 15.4258C199.81 16.1857 200.114 17.7081 199.419 18.8652C197.801 21.5605 196.409 24.3538 195.247 27.2461L195.248 27.2471C193.896 30.665 193.234 34.4482 193.269 38.6025V47.8232ZM220.149 47.8232C220.149 49.2039 219.03 50.3232 217.649 50.3232H206.38C205 50.3232 203.88 49.204 203.88 47.8232V38.7158C203.88 35.4599 204.474 32.0839 205.656 28.5908L205.657 28.5879C206.872 25.0629 208.517 21.7397 210.59 18.6191L210.591 18.6172C212.389 15.9251 214.373 13.5877 216.544 11.6084C217.378 10.8487 218.608 10.8003 219.523 11.4102L225.549 15.4258C226.69 16.1856 226.994 17.7082 226.299 18.8652C224.68 21.5604 223.289 24.3539 222.127 27.2461L222.128 27.2471C220.776 30.6651 220.114 34.4482 220.149 38.6025V47.8232Z" fill="url(#paint0_linear_14_206591)" stroke="#CAFF33"/>
<line x1="252" y1="29.5" x2="404" y2="29.5" stroke="#262626"/>
<defs>
<linearGradient id="paint0_linear_14_206591" x1="202.206" y1="11" x2="202.206" y2="49.8235" gradientUnits="userSpaceOnUse">
<stop stop-color="#CAFF33"/>
<stop offset="1" stop-color="#191919"/>
</linearGradient>
</defs>
</svg>
