<svg width="78" height="78" viewBox="0 0 78 78" fill="none" xmlns="http://www.w3.org/2000/svg">
<rect width="78" height="78" rx="39" fill="url(#paint0_linear_14_206683)" fill-opacity="0.05"/>
<rect x="10" y="10" width="58" height="58" rx="29" fill="url(#paint1_linear_14_206683)" fill-opacity="0.1"/>
<rect x="10.5" y="10.5" width="57" height="57" rx="28.5" stroke="url(#paint2_linear_14_206683)" stroke-opacity="0.2"/>
<g clip-path="url(#clip0_14_206683)">
<path d="M48.6577 38.0195C48.6577 38.7673 48.6677 39.5102 48.6527 40.2581C48.6426 40.6615 48.7581 41.0158 48.9688 41.3503C49.5108 42.2261 50.2285 42.9592 50.9562 43.6825C51.2272 43.9531 51.5082 44.2089 51.7943 44.4598C51.9348 44.5828 52.0001 44.7107 52.0001 44.9026C51.99 45.7243 51.99 46.541 51.995 47.3626C52.0001 48.0465 51.6989 48.5582 51.0716 48.8436C50.4292 49.1339 49.827 49.0109 49.3001 48.5631C48.211 47.6283 47.127 46.6886 46.043 45.7538C45.3053 45.1142 44.5726 44.4647 43.8198 43.8448C43.5538 43.6234 43.2376 43.461 42.9315 43.2938C42.4798 43.0478 41.993 42.9149 41.466 42.9346C41.0846 42.9494 40.6932 42.9543 40.3118 42.9248C39.7547 42.8805 39.3582 42.5016 39.283 41.9801C39.2127 41.5225 39.4887 41.0305 39.9504 40.8534C40.1261 40.7845 40.3218 40.755 40.5125 40.755C41.9579 40.7452 43.4032 40.7501 44.8536 40.7501C45.3956 40.7501 45.5913 40.5582 45.5913 40.0219C45.5913 38.9395 45.5863 37.8571 45.5913 36.7747C45.5963 36.3614 45.4508 36.0367 45.1346 35.7563C43.3129 34.1523 41.5012 32.5385 39.6844 30.9248C39.1976 30.4918 39.1424 29.8522 39.5489 29.3848C39.9504 28.9174 40.6079 28.8731 41.1248 29.2667C43.4484 31.0379 45.767 32.8091 48.1006 34.5705C48.487 34.8608 48.6677 35.215 48.6627 35.6825C48.6527 36.4598 48.6577 37.2372 48.6577 38.0195Z" fill="#CAFF33"/>
<path d="M25.005 46.2056C25.005 45.7628 25.01 45.32 25 44.8772C24.995 44.705 25.0652 44.5918 25.1807 44.4737C25.9385 43.7111 26.6863 42.9387 27.429 42.1613C27.5846 41.9989 27.7 41.807 27.8355 41.6299C28.1918 41.1527 28.3574 40.6312 28.3424 40.0211C28.3123 38.6139 28.3474 37.2019 28.3273 35.7898C28.3173 35.2339 28.518 34.8403 28.9747 34.4958C31.2933 32.764 33.5868 31.0026 35.8903 29.2462C36.3721 28.8772 37.0346 28.9362 37.426 29.379C37.8275 29.8316 37.7924 30.4811 37.3257 30.9042C36.618 31.5438 35.9004 32.1687 35.1877 32.8034C34.0586 33.8021 32.9294 34.8058 31.8002 35.8046C31.5342 36.0407 31.4037 36.3261 31.4037 36.6705C31.4037 37.8169 31.3987 38.9633 31.4037 40.1145C31.4037 40.5377 31.6245 40.7443 32.0612 40.7443C33.5517 40.7492 35.0372 40.7443 36.5277 40.7492C37.2303 40.7492 37.7221 41.2314 37.7071 41.8808C37.697 42.3778 37.3307 42.8255 36.8238 42.8993C36.5227 42.9436 36.2065 42.9633 35.9004 42.9337C34.8716 42.8353 34.0034 43.2043 33.2355 43.8046C32.4526 44.4147 31.7199 45.0936 30.9721 45.7382C29.8731 46.6828 28.779 47.6373 27.6749 48.577C26.7816 49.3396 25.4617 49.0051 25.0803 47.9177C25.0301 47.78 25.0151 47.6275 25.01 47.4848C25 47.0617 25.005 46.6336 25.005 46.2056Z" fill="#CAFF33"/>
<path d="M39.2126 39.0364C39.2126 39.2726 39.2126 39.494 39.2126 39.7351C38.7911 39.7351 38.3896 39.7351 37.9529 39.7351C37.9529 39.5432 37.9479 39.3562 37.9529 39.1693C37.958 39.0315 37.9178 38.9725 37.7723 38.938C37.3557 38.8396 36.9693 38.6724 36.608 38.387C36.8388 38.0869 37.0596 37.8015 37.2604 37.5358C37.6418 37.6785 37.9881 37.8458 38.3544 37.9294C38.6204 37.9885 38.9165 37.9491 39.1925 37.9048C39.4033 37.8704 39.5388 37.708 39.5539 37.4866C39.574 37.2603 39.4535 37.1029 39.2528 37.0241C38.9115 36.8962 38.5552 36.7978 38.2089 36.6847C37.958 36.601 37.697 36.5272 37.4511 36.4239C36.874 36.1828 36.5678 35.7548 36.5528 35.125C36.5377 34.4657 36.7886 33.9343 37.3909 33.649C37.7823 33.462 38.1186 33.3243 37.9228 32.7781C38.3494 32.7781 38.7208 32.7732 39.0972 32.788C39.1373 32.788 39.2076 32.911 39.2076 32.9799C39.2327 33.3981 39.2327 33.3882 39.6292 33.526C39.86 33.6047 40.0808 33.7179 40.3318 33.831C40.121 34.1508 39.9503 34.4313 39.7596 34.697C39.7295 34.7363 39.6091 34.7314 39.5388 34.7117C39.2076 34.6281 38.8864 34.5198 38.5552 34.4559C38.4247 34.4313 38.2741 34.4706 38.1386 34.5051C37.9379 34.5592 37.8024 34.692 37.7873 34.9085C37.7723 35.1201 37.8676 35.2824 38.0634 35.3612C38.3193 35.4645 38.5803 35.5432 38.8412 35.6268C39.1273 35.7203 39.4234 35.7892 39.6994 35.8925C40.4974 36.1976 40.8186 36.6797 40.7784 37.4719C40.7383 38.2 40.2816 38.7412 39.5288 38.9528C39.4384 38.9823 39.3431 39.0069 39.2126 39.0364Z" fill="#CAFF33"/>
</g>
<defs>
<linearGradient id="paint0_linear_14_206683" x1="39" y1="0" x2="39" y2="78" gradientUnits="userSpaceOnUse">
<stop stop-color="#CAFF33"/>
<stop offset="1" stop-color="#CAFF33" stop-opacity="0"/>
</linearGradient>
<linearGradient id="paint1_linear_14_206683" x1="39" y1="-28.4054" x2="39" y2="159.703" gradientUnits="userSpaceOnUse">
<stop stop-color="#CAFF33"/>
<stop offset="0.467671" stop-color="#CAFF33" stop-opacity="0"/>
</linearGradient>
<linearGradient id="paint2_linear_14_206683" x1="39" y1="-90.7162" x2="39" y2="120.514" gradientUnits="userSpaceOnUse">
<stop stop-color="#CAFF33"/>
<stop offset="0.716291" stop-color="#CAFF33" stop-opacity="0"/>
</linearGradient>
<clipPath id="clip0_14_206683">
<rect width="27" height="20" fill="white" transform="translate(25 29)"/>
</clipPath>
</defs>
</svg>
