<svg width="74" height="74" viewBox="0 0 74 74" fill="none" xmlns="http://www.w3.org/2000/svg">
<rect width="74" height="74" rx="37" fill="url(#paint0_linear_14_207393)" fill-opacity="0.1"/>
<rect x="0.5" y="0.5" width="73" height="73" rx="36.5" stroke="url(#paint1_linear_14_207393)" stroke-opacity="0.2"/>
<path d="M28.5 24.25C26.1528 24.25 24.25 26.1528 24.25 28.5V31.6875C24.25 34.0347 26.1528 35.9375 28.5 35.9375H31.6875C34.0347 35.9375 35.9375 34.0347 35.9375 31.6875V28.5C35.9375 26.1528 34.0347 24.25 31.6875 24.25H28.5Z" fill="#CAFF33"/>
<path d="M42.3125 24.25C39.9653 24.25 38.0625 26.1528 38.0625 28.5V31.6875C38.0625 34.0347 39.9653 35.9375 42.3125 35.9375H45.5C47.8472 35.9375 49.75 34.0347 49.75 31.6875V28.5C49.75 26.1528 47.8472 24.25 45.5 24.25H42.3125Z" fill="#CAFF33"/>
<path d="M28.5 38.0625C26.1528 38.0625 24.25 39.9653 24.25 42.3125V45.5C24.25 47.8472 26.1528 49.75 28.5 49.75H31.6875C34.0347 49.75 35.9375 47.8472 35.9375 45.5V42.3125C35.9375 39.9653 34.0347 38.0625 31.6875 38.0625H28.5Z" fill="#CAFF33"/>
<path d="M44.9688 39.125C44.9688 38.5382 44.4931 38.0625 43.9062 38.0625C43.3194 38.0625 42.8438 38.5382 42.8438 39.125V42.8438H39.125C38.5382 42.8438 38.0625 43.3194 38.0625 43.9062C38.0625 44.4931 38.5382 44.9688 39.125 44.9688H42.8438V48.6875C42.8438 49.2743 43.3194 49.75 43.9062 49.75C44.4931 49.75 44.9688 49.2743 44.9688 48.6875V44.9688H48.6875C49.2743 44.9688 49.75 44.4931 49.75 43.9062C49.75 43.3194 49.2743 42.8438 48.6875 42.8438H44.9688V39.125Z" fill="#CAFF33"/>
<defs>
<linearGradient id="paint0_linear_14_207393" x1="37" y1="-49" x2="37" y2="191" gradientUnits="userSpaceOnUse">
<stop stop-color="#CAFF33"/>
<stop offset="0.467671" stop-color="#CAFF33" stop-opacity="0"/>
</linearGradient>
<linearGradient id="paint1_linear_14_207393" x1="37" y1="-128.5" x2="37" y2="141" gradientUnits="userSpaceOnUse">
<stop stop-color="#CAFF33"/>
<stop offset="0.716291" stop-color="#CAFF33" stop-opacity="0"/>
</linearGradient>
</defs>
</svg>
