<svg width="74" height="74" viewBox="0 0 74 74" fill="none" xmlns="http://www.w3.org/2000/svg">
<rect width="74" height="74" rx="37" fill="url(#paint0_linear_14_207401)" fill-opacity="0.1"/>
<rect x="0.5" y="0.5" width="73" height="73" rx="36.5" stroke="url(#paint1_linear_14_207401)" stroke-opacity="0.2"/>
<path d="M36.4963 22.252C36.8107 22.0827 37.1893 22.0827 37.5037 22.252L51.3162 29.6895C51.6604 29.8748 51.875 30.2341 51.875 30.625C51.875 31.0159 51.6604 31.3752 51.3162 31.5605L37.5037 38.998C37.1893 39.1673 36.8107 39.1673 36.4963 38.998L22.6838 31.5605C22.3396 31.3752 22.125 31.0159 22.125 30.625C22.125 30.2341 22.3396 29.8748 22.6838 29.6895L36.4963 22.252Z" fill="#CAFF33"/>
<path d="M24.625 35.0192L35.4888 40.869C36.4322 41.377 37.5678 41.377 38.5112 40.869L49.375 35.0192L51.3162 36.0645C51.6604 36.2498 51.875 36.6091 51.875 37C51.875 37.3909 51.6604 37.7502 51.3162 37.9355L37.5037 45.373C37.1893 45.5423 36.8107 45.5423 36.4963 45.373L22.6838 37.9355C22.3396 37.7502 22.125 37.3909 22.125 37C22.125 36.6091 22.3396 36.2498 22.6838 36.0645L24.625 35.0192Z" fill="#CAFF33"/>
<path d="M35.4888 47.244L24.625 41.3942L22.6838 42.4395C22.3396 42.6248 22.125 42.9841 22.125 43.375C22.125 43.7659 22.3396 44.1252 22.6838 44.3105L36.4963 51.748C36.8107 51.9173 37.1893 51.9173 37.5037 51.748L51.3162 44.3105C51.6604 44.1252 51.875 43.7659 51.875 43.375C51.875 42.9841 51.6604 42.6248 51.3162 42.4395L49.375 41.3942L38.5112 47.244C37.5678 47.752 36.4322 47.752 35.4888 47.244Z" fill="#CAFF33"/>
<defs>
<linearGradient id="paint0_linear_14_207401" x1="37" y1="-49" x2="37" y2="191" gradientUnits="userSpaceOnUse">
<stop stop-color="#CAFF33"/>
<stop offset="0.467671" stop-color="#CAFF33" stop-opacity="0"/>
</linearGradient>
<linearGradient id="paint1_linear_14_207401" x1="37" y1="-128.5" x2="37" y2="141" gradientUnits="userSpaceOnUse">
<stop stop-color="#CAFF33"/>
<stop offset="0.716291" stop-color="#CAFF33" stop-opacity="0"/>
</linearGradient>
</defs>
</svg>
