<svg width="74" height="74" viewBox="0 0 74 74" fill="none" xmlns="http://www.w3.org/2000/svg">
<rect width="74" height="74" rx="37" fill="url(#paint0_linear_14_207410)" fill-opacity="0.1"/>
<rect x="0.5" y="0.5" width="73" height="73" rx="36.5" stroke="url(#paint1_linear_14_207410)" stroke-opacity="0.2"/>
<path fill-rule="evenodd" clip-rule="evenodd" d="M32.75 26.375C33.2244 26.375 33.6413 26.6895 33.7716 27.1456L34.9236 31.1777C35.4279 32.9426 36.8074 34.3221 38.5723 34.8264L42.6044 35.9784C43.0605 36.1087 43.375 36.5256 43.375 37C43.375 37.4744 43.0605 37.8913 42.6044 38.0216L38.5723 39.1736C36.8074 39.6779 35.4279 41.0574 34.9236 42.8223L33.7716 46.8544C33.6413 47.3105 33.2244 47.625 32.75 47.625C32.2756 47.625 31.8587 47.3105 31.7284 46.8544L30.5764 42.8223C30.0721 41.0574 28.6926 39.6779 26.9277 39.1736L22.8956 38.0216C22.4395 37.8913 22.125 37.4744 22.125 37C22.125 36.5256 22.4395 36.1087 22.8956 35.9784L26.9277 34.8264C28.6926 34.3221 30.0721 32.9426 30.5764 31.1777L31.7284 27.1456C31.8587 26.6895 32.2756 26.375 32.75 26.375Z" fill="#CAFF33"/>
<path fill-rule="evenodd" clip-rule="evenodd" d="M45.5 22.125C45.9875 22.125 46.4125 22.4568 46.5308 22.9298L46.8975 24.3967C47.2306 25.7291 48.2709 26.7694 49.6033 27.1025L51.0702 27.4692C51.5432 27.5875 51.875 28.0125 51.875 28.5C51.875 28.9875 51.5432 29.4125 51.0702 29.5308L49.6033 29.8975C48.2709 30.2306 47.2306 31.2709 46.8975 32.6033L46.5308 34.0702C46.4125 34.5432 45.9875 34.875 45.5 34.875C45.0125 34.875 44.5875 34.5432 44.4692 34.0702L44.1025 32.6033C43.7694 31.2709 42.7291 30.2306 41.3967 29.8975L39.9298 29.5308C39.4568 29.4125 39.125 28.9875 39.125 28.5C39.125 28.0125 39.4568 27.5875 39.9298 27.4692L41.3967 27.1025C42.7291 26.7694 43.7694 25.7291 44.1025 24.3967L44.4692 22.9298C44.5875 22.4568 45.0125 22.125 45.5 22.125Z" fill="#CAFF33"/>
<path fill-rule="evenodd" clip-rule="evenodd" d="M43.375 41.25C43.8323 41.25 44.2384 41.5426 44.383 41.9765L44.9415 43.652C45.153 44.2866 45.6509 44.7845 46.2855 44.996L47.961 45.5545C48.3949 45.6991 48.6875 46.1052 48.6875 46.5625C48.6875 47.0198 48.3949 47.4259 47.961 47.5705L46.2855 48.129C45.6509 48.3405 45.153 48.8384 44.9415 49.473L44.383 51.1485C44.2384 51.5824 43.8323 51.875 43.375 51.875C42.9177 51.875 42.5116 51.5824 42.367 51.1485L41.8085 49.473C41.597 48.8384 41.0991 48.3405 40.4645 48.129L38.789 47.5705C38.3551 47.4259 38.0625 47.0198 38.0625 46.5625C38.0625 46.1052 38.3551 45.6991 38.789 45.5545L40.4645 44.996C41.0991 44.7845 41.597 44.2866 41.8085 43.652L42.367 41.9765C42.5116 41.5426 42.9177 41.25 43.375 41.25Z" fill="#CAFF33"/>
<defs>
<linearGradient id="paint0_linear_14_207410" x1="37" y1="-49" x2="37" y2="191" gradientUnits="userSpaceOnUse">
<stop stop-color="#CAFF33"/>
<stop offset="0.467671" stop-color="#CAFF33" stop-opacity="0"/>
</linearGradient>
<linearGradient id="paint1_linear_14_207410" x1="37" y1="-128.5" x2="37" y2="141" gradientUnits="userSpaceOnUse">
<stop stop-color="#CAFF33"/>
<stop offset="0.716291" stop-color="#CAFF33" stop-opacity="0"/>
</linearGradient>
</defs>
</svg>
