<svg width="74" height="74" viewBox="0 0 74 74" fill="none" xmlns="http://www.w3.org/2000/svg">
<rect width="74" height="74" rx="37" fill="url(#paint0_linear_14_207418)" fill-opacity="0.1"/>
<rect x="0.5" y="0.5" width="73" height="73" rx="36.5" stroke="url(#paint1_linear_14_207418)" stroke-opacity="0.2"/>
<path fill-rule="evenodd" clip-rule="evenodd" d="M37 23.1875C29.3716 23.1875 23.1875 29.3716 23.1875 37C23.1875 44.6284 29.3716 50.8125 37 50.8125C44.6284 50.8125 50.8125 44.6284 50.8125 37C50.8125 29.3716 44.6284 23.1875 37 23.1875ZM32.75 30.625C32.1632 30.625 31.6875 31.1007 31.6875 31.6875C31.6875 32.2743 32.1632 32.75 32.75 32.75H34.875C36.2629 32.75 37.4435 33.637 37.8811 34.875H32.75C32.1632 34.875 31.6875 35.3507 31.6875 35.9375C31.6875 36.5243 32.1632 37 32.75 37H37.8811C37.4435 38.238 36.2629 39.125 34.875 39.125H32.75C32.3203 39.125 31.9328 39.3839 31.7684 39.7809C31.6039 40.1779 31.6948 40.6349 31.9987 40.9388L36.2487 45.1888C36.6636 45.6037 37.3364 45.6037 37.7513 45.1888C38.1662 44.7739 38.1662 44.1011 37.7513 43.6862L35.2985 41.2334C37.6779 41.0457 39.6163 39.2904 40.0812 37H41.25C41.8368 37 42.3125 36.5243 42.3125 35.9375C42.3125 35.3507 41.8368 34.875 41.25 34.875H40.0812C39.9219 34.0899 39.5894 33.3677 39.1254 32.75H41.25C41.8368 32.75 42.3125 32.2743 42.3125 31.6875C42.3125 31.1007 41.8368 30.625 41.25 30.625H32.75Z" fill="#CAFF33"/>
<defs>
<linearGradient id="paint0_linear_14_207418" x1="37" y1="-49" x2="37" y2="191" gradientUnits="userSpaceOnUse">
<stop stop-color="#CAFF33"/>
<stop offset="0.467671" stop-color="#CAFF33" stop-opacity="0"/>
</linearGradient>
<linearGradient id="paint1_linear_14_207418" x1="37" y1="-128.5" x2="37" y2="141" gradientUnits="userSpaceOnUse">
<stop stop-color="#CAFF33"/>
<stop offset="0.716291" stop-color="#CAFF33" stop-opacity="0"/>
</linearGradient>
</defs>
</svg>
