<svg width="51" height="41" viewBox="0 0 51 41" fill="none" xmlns="http://www.w3.org/2000/svg">
<path d="M16.7686 37.3311C16.7686 38.7118 15.6493 39.8311 14.2686 39.8311H3C1.61929 39.8311 0.5 38.7118 0.5 37.3311V28.2236C0.5 24.9677 1.09494 21.5917 2.27637 18.0986L2.27734 18.0957C3.49294 14.5707 5.13768 11.2476 7.21094 8.12695V8.125C9.00928 5.43281 10.9941 3.09559 13.165 1.11621C13.9983 0.356758 15.2275 0.308197 16.1426 0.917969L22.1689 4.93359C23.3093 5.69349 23.6137 7.21595 22.9189 8.37305C21.3002 11.0683 19.9085 13.8616 18.7471 16.7539L18.748 16.7549C17.3961 20.1729 16.7337 23.956 16.7686 28.1104V37.3311ZM43.6484 37.3311C43.6484 38.7118 42.5292 39.8311 41.1484 39.8311H29.8799C28.4992 39.8311 27.3799 38.7118 27.3799 37.3311V28.2236C27.3799 24.9677 27.9739 21.5917 29.1553 18.0986L29.1562 18.0957C30.3718 14.5707 32.0166 11.2475 34.0898 8.12695L34.0908 8.125C35.8891 5.43289 37.8731 3.09554 40.0439 1.11621C40.8772 0.356493 42.1073 0.308124 43.0225 0.917969L49.0488 4.93359C50.1892 5.69346 50.4935 7.21597 49.7988 8.37305C48.1801 11.0682 46.7884 13.8617 45.627 16.7539L45.6279 16.7549C44.276 20.1729 43.6136 23.956 43.6484 28.1104V37.3311Z" fill="url(#paint0_linear_14_207577)" stroke="#CAFF33"/>
<defs>
<linearGradient id="paint0_linear_14_207577" x1="25.7059" y1="0.507812" x2="25.7059" y2="39.3314" gradientUnits="userSpaceOnUse">
<stop stop-color="#CAFF33"/>
<stop offset="1" stop-color="#191919"/>
</linearGradient>
</defs>
</svg>
