<svg width="78" height="78" viewBox="0 0 78 78" fill="none" xmlns="http://www.w3.org/2000/svg">
<rect width="78" height="78" rx="39" fill="url(#paint0_linear_14_206670)" fill-opacity="0.05"/>
<rect x="10" y="10" width="58" height="58" rx="29" fill="url(#paint1_linear_14_206670)" fill-opacity="0.1"/>
<rect x="10.5" y="10.5" width="57" height="57" rx="28.5" stroke="url(#paint2_linear_14_206670)" stroke-opacity="0.2"/>
<g clip-path="url(#clip0_14_206670)">
<path d="M41.692 30.8801C41.725 30.9186 41.7305 30.9296 41.736 30.9296C42.2804 31.0066 42.5333 31.4135 42.8248 31.8204C43.1602 32.2823 43.5616 32.7057 43.9905 33.0906C45.1178 34.1079 45.8106 35.3396 46.0416 36.8408C46.443 39.4693 44.9363 42.1692 42.4619 43.2195C38.7062 44.8141 34.5106 42.3891 34.0762 38.331C33.8452 36.17 34.637 34.3829 36.2867 32.9752C36.8201 32.5188 37.2655 31.9909 37.6339 31.3915C37.6999 31.2815 37.8209 31.1935 37.9363 31.1385C38.1233 31.0506 38.3322 31.0011 38.5687 30.9186C38.4917 30.8251 38.4367 30.7591 38.3762 30.6931C38.0078 30.3137 37.6394 29.9233 37.2655 29.5549C37.1335 29.4229 37.073 29.2854 37.0785 29.0985C37.0895 28.3177 37.084 27.5423 37.084 26.7615C37.084 26.4481 37.4689 25.9477 37.7824 25.8872C38.1398 25.8157 38.5082 25.7772 38.8656 25.7057C38.9701 25.6837 39.0856 25.6177 39.1461 25.5352C39.6685 24.8314 40.5868 24.8259 41.1037 25.5243C41.1751 25.6177 41.3126 25.6892 41.4281 25.7167C41.758 25.7882 42.0934 25.8267 42.4289 25.8872C42.7643 25.9532 43.1217 26.3876 43.1217 26.7285C43.1217 27.5148 43.1162 28.3067 43.1272 29.093C43.1327 29.2964 43.0667 29.4339 42.9293 29.5769C42.5113 30.0003 42.1099 30.4347 41.692 30.8801ZM39.3825 33.9429C39.366 34.0089 39.3495 34.0474 39.355 34.0804C39.4265 34.4488 39.256 34.6083 38.9151 34.7458C38.2663 35.0152 37.9748 35.5596 37.9913 36.258C38.0078 36.9508 38.3817 37.3797 39.0086 37.6052C39.2835 37.7041 39.5695 37.7756 39.8444 37.8691C40.0974 37.9516 40.3503 38.0341 40.5923 38.133C40.7957 38.2155 40.9112 38.375 40.8892 38.6059C40.8672 38.8424 40.7187 38.9799 40.5098 39.0184C40.2953 39.0624 40.0644 39.1008 39.8609 39.0514C39.465 38.9579 39.0856 38.7984 38.6677 38.6554C38.4807 38.9029 38.2663 39.1833 38.0078 39.5298C38.3982 39.7002 38.7337 39.8762 39.0911 39.9972C39.2945 40.0631 39.377 40.1511 39.3495 40.3601C39.333 40.5085 39.344 40.6625 39.344 40.833C39.6575 40.833 39.9214 40.833 40.1853 40.833C40.5648 40.833 40.5813 40.833 40.5593 40.4426C40.5483 40.2006 40.6033 40.0686 40.8672 40.0356C41.0047 40.0191 41.1421 39.9422 41.2686 39.8707C41.8515 39.5517 42.0934 39.0404 42.0824 38.3915C42.0714 37.7756 41.7635 37.3522 41.2136 37.1048C40.9662 36.9948 40.7022 36.9123 40.4383 36.8243C40.1084 36.7144 39.7784 36.6154 39.4485 36.4944C39.245 36.4174 39.1626 36.2525 39.1791 36.0325C39.1956 35.8235 39.322 35.6806 39.5145 35.6476C39.7454 35.6091 39.9929 35.5871 40.2183 35.6256C40.4933 35.6751 40.7517 35.8015 41.0432 35.9005C41.2246 35.6201 41.4116 35.3232 41.6315 34.9767C41.3786 34.8613 41.1641 34.7183 40.9332 34.6798C40.6088 34.6248 40.5098 34.4763 40.5483 34.1684C40.5593 34.0969 40.4603 33.9539 40.3998 33.9484C40.0699 33.9319 39.7234 33.9429 39.3825 33.9429Z" fill="#CAFF33"/>
<path d="M39.6795 52.9912C38.5082 52.9912 37.3315 52.9582 36.1602 53.0022C35.3739 53.0297 34.703 52.7932 34.0707 52.3753C33.1744 51.776 32.355 51.0941 31.6402 50.2803C30.5844 49.076 29.5176 47.8718 28.4619 46.6676C27.5985 45.6778 27.989 44.2151 29.2207 43.8137C29.3637 43.7642 29.5286 43.7477 29.6771 43.7477C30.6559 43.7422 31.6402 43.7367 32.619 43.7532C32.7564 43.7532 32.9214 43.8247 33.0204 43.9181C33.6912 44.567 34.3511 45.2324 35.0055 45.8977C35.1374 46.0297 35.2584 46.0572 35.4454 46.0297C35.8413 45.9692 36.2482 45.9142 36.6496 45.9142C38.5027 45.9032 40.3503 45.9087 42.2034 45.9087C42.8358 45.9087 43.3032 46.2332 43.4681 46.772C43.7211 47.5859 43.1272 48.3502 42.2199 48.3557C40.9937 48.3612 39.7619 48.3557 38.5357 48.3557C38.3158 48.3557 38.0958 48.3502 37.8758 48.3557C37.4799 48.3667 37.2215 48.6196 37.216 48.9771C37.216 49.34 37.4744 49.6149 37.8648 49.6149C39.8169 49.6204 41.769 49.6204 43.7211 49.6149C44.117 49.6149 44.4029 49.395 44.6779 49.131C45.9536 47.9048 47.2293 46.6786 48.5106 45.4578C49.033 44.9574 49.7258 44.9354 50.2207 45.3808C50.7541 45.8647 50.7651 46.6456 50.2262 47.1899C49.6598 47.7673 49.0824 48.3117 48.5106 48.8671C47.2458 50.0933 45.9811 51.3141 44.7219 52.5403C44.4139 52.8372 44.073 52.9912 43.6386 52.9912C42.3189 52.9857 40.9992 52.9912 39.6795 52.9912Z" fill="#CAFF33"/>
<path d="M33.1359 29.7539C33.6693 30.2873 34.2027 30.8207 34.725 31.3431C34.4006 31.6675 34.0597 32.0084 33.7188 32.3439C33.2129 31.8215 32.6795 31.2716 32.1681 30.7437C32.4705 30.4358 32.8115 30.0838 33.1359 29.7539Z" fill="#CAFF33"/>
<path d="M47.0204 29.7539C47.3448 30.0783 47.6803 30.4248 47.9937 30.7382C47.4713 31.2606 46.9269 31.805 46.399 32.3274C46.0801 32.0084 45.7447 31.662 45.4092 31.3266C45.9316 30.8152 46.4705 30.2873 47.0204 29.7539Z" fill="#CAFF33"/>
<path d="M48.2851 38.4171C48.2851 37.9497 48.2796 37.5208 48.2906 37.0919C48.2906 37.0369 48.3951 36.9379 48.4501 36.9379C49.1209 36.9269 49.7863 36.9269 50.4572 36.9379C50.5122 36.9379 50.6166 37.0204 50.6166 37.0644C50.6276 37.5098 50.6221 37.9552 50.6221 38.4171C49.8358 38.4171 49.077 38.4171 48.2851 38.4171Z" fill="#CAFF33"/>
<path d="M31.8547 38.4336C31.0958 38.4336 30.3865 38.4391 29.6716 38.4281C29.6166 38.4281 29.5287 38.3236 29.5232 38.2632C29.5122 37.8782 29.5067 37.4933 29.5232 37.1084C29.5232 37.0479 29.6331 36.9379 29.6936 36.9379C30.3535 36.9269 31.0133 36.9269 31.6732 36.9379C31.7337 36.9379 31.8437 37.0259 31.8437 37.0809C31.8602 37.5098 31.8547 37.9497 31.8547 38.4336Z" fill="#CAFF33"/>
</g>
<defs>
<linearGradient id="paint0_linear_14_206670" x1="39" y1="0" x2="39" y2="78" gradientUnits="userSpaceOnUse">
<stop stop-color="#CAFF33"/>
<stop offset="1" stop-color="#CAFF33" stop-opacity="0"/>
</linearGradient>
<linearGradient id="paint1_linear_14_206670" x1="39" y1="-28.4054" x2="39" y2="159.703" gradientUnits="userSpaceOnUse">
<stop stop-color="#CAFF33"/>
<stop offset="0.467671" stop-color="#CAFF33" stop-opacity="0"/>
</linearGradient>
<linearGradient id="paint2_linear_14_206670" x1="39" y1="-90.7162" x2="39" y2="120.514" gradientUnits="userSpaceOnUse">
<stop stop-color="#CAFF33"/>
<stop offset="0.716291" stop-color="#CAFF33" stop-opacity="0"/>
</linearGradient>
<clipPath id="clip0_14_206670">
<rect width="22.6277" height="28" fill="white" transform="translate(28 25)"/>
</clipPath>
</defs>
</svg>
