<svg width="35" height="35" viewBox="0 0 35 35" fill="none" xmlns="http://www.w3.org/2000/svg">
<path d="M34.1612 21.5359C31.8451 30.8256 22.4356 36.4787 13.1448 34.1626C3.85826 31.8466 -1.79536 22.437 0.521253 13.1478C2.83624 3.85701 12.2452 -1.79715 21.5333 0.518919C30.8236 2.83499 36.4767 12.2456 34.1606 21.5359H34.1612Z" fill="#262626"/>
<path d="M18.183 9.65723L17.6654 11.7354C18.0116 11.8144 18.3598 11.895 18.6986 11.9795L19.2133 9.91504L20.5043 10.2363L19.976 12.3564C21.6055 12.9178 22.7967 13.7599 22.5629 15.3252C22.3933 16.4706 21.7584 17.0255 20.9154 17.2207C22.0731 17.824 22.6622 18.7489 22.101 20.3516C21.405 22.3416 19.749 22.5093 17.5482 22.0928L17.014 24.2334L15.724 23.9121L16.2504 21.7998C15.9159 21.7167 15.5737 21.6287 15.222 21.5332L14.6927 23.6553L13.4037 23.333L13.9379 21.1885C13.6368 21.1113 13.3304 21.0295 13.0179 20.9512L11.3383 20.5322L11.9789 19.0547C11.9789 19.0547 12.9302 19.3068 12.9174 19.2881C13.2827 19.3784 13.4442 19.1402 13.5082 18.9814L14.3529 15.5977L14.4886 15.6318C14.4373 15.6113 14.3908 15.598 14.3549 15.5889L14.9574 13.1729C14.9735 12.8987 14.8782 12.5534 14.3558 12.4229C14.3759 12.4093 13.4307 12.1923 13.4183 12.1895L13.7611 10.8105L15.5414 11.2549L15.5404 11.2617C15.808 11.3282 16.0839 11.3921 16.3646 11.4561L16.8929 9.33594L18.183 9.65723ZM15.641 19.9795C16.5163 20.1971 19.2154 21.0628 19.6146 19.46C20.0302 17.7886 17.2249 17.3561 16.35 17.1377L15.641 19.9795ZM16.6732 15.8369C17.4022 16.0185 19.6491 16.7597 20.0131 15.3018C20.3924 13.7809 18.0448 13.4423 17.3158 13.2607L16.6732 15.8369Z" fill="#CAFF33"/>
</svg>
