<svg width="35" height="35" viewBox="0 0 35 35" fill="none" xmlns="http://www.w3.org/2000/svg">
<path fill-rule="evenodd" clip-rule="evenodd" d="M17.3407 34.6814C26.9177 34.6814 34.6814 26.9177 34.6814 17.3407C34.6814 7.76371 26.9177 0 17.3407 0C7.76371 0 0 7.76371 0 17.3407C0 26.9177 7.76371 34.6814 17.3407 34.6814Z" fill="#262626"/>
<path fill-rule="evenodd" clip-rule="evenodd" d="M15.8213 9.33594C16.7737 9.33594 17.7225 9.33594 18.6749 9.33594C18.6189 9.98018 18.5593 10.6279 18.5068 11.2722C19.6167 11.3527 20.6986 11.7098 21.672 12.2385C21.2518 13.2959 20.8282 14.3533 20.4045 15.4107C19.5852 14.7139 18.5068 14.3288 17.4319 14.3428C17.1623 14.3498 16.8822 14.4023 16.6581 14.5564C16.5111 14.6579 16.4025 14.8155 16.371 14.9905C16.3465 15.1306 16.3535 15.2882 16.4305 15.4142C16.5181 15.5543 16.6721 15.6383 16.8262 15.6908C17.1413 15.8028 17.4809 15.8099 17.81 15.8449C18.5838 15.9394 19.3611 16.0725 20.0929 16.3491C20.6601 16.5661 21.2028 16.8918 21.5915 17.3679C21.9591 17.8056 22.1727 18.3588 22.2532 18.926C22.3477 19.5808 22.3197 20.26 22.1167 20.8973C21.9591 21.4084 21.6895 21.8846 21.3394 22.2873C20.6146 23.1276 19.5502 23.6318 18.4578 23.7613C18.4928 24.4511 18.5348 25.1373 18.5733 25.8271C17.67 25.8271 16.7702 25.8271 15.8703 25.8271C15.9053 25.1443 15.9509 24.4616 15.9824 23.7788C15.2576 23.7543 14.5398 23.5933 13.8641 23.3377C13.2093 23.0891 12.5861 22.7599 12.0049 22.3748C12.432 21.2754 12.8592 20.176 13.2899 19.0731C13.7765 19.4827 14.2947 19.8644 14.8619 20.155C15.4712 20.4666 16.1469 20.6662 16.8332 20.6732C17.1588 20.6767 17.4949 20.6592 17.803 20.5471C17.9921 20.4771 18.1777 20.3545 18.2617 20.162C18.3493 19.9589 18.3422 19.7033 18.2092 19.5212C18.1147 19.3987 17.9816 19.3147 17.8416 19.2551C17.6525 19.1781 17.4564 19.1361 17.2568 19.1046C16.5216 18.9855 15.7828 18.8875 15.072 18.6564C14.5013 18.4708 13.9446 18.2117 13.4894 17.8126C13.2023 17.564 12.9642 17.2594 12.7962 16.9163C12.5441 16.4051 12.4495 15.8274 12.4566 15.2601C12.4566 14.6264 12.5861 13.9822 12.9012 13.4255C13.1743 12.9283 13.591 12.5221 14.0601 12.2105C14.6274 11.8359 15.2611 11.5803 15.9053 11.3737C15.8773 10.6944 15.8493 10.0152 15.8213 9.33594Z" fill="#CAFF33"/>
</svg>
