<svg width="35" height="35" viewBox="0 0 35 35" fill="none" xmlns="http://www.w3.org/2000/svg">
<path d="M34.5874 17.343C34.5874 26.8696 26.8647 34.5925 17.3382 34.5925C7.81162 34.5925 0.0888672 26.8696 0.0888672 17.343C0.0888672 7.8165 7.81162 0.09375 17.3382 0.09375C26.8646 0.09375 34.5874 7.8165 34.5874 17.343Z" fill="#262626"/>
<g opacity="0.8">
<path d="M17.2826 9.33594L17.176 9.69807V20.2063L17.2826 20.3126L22.1604 17.4294L17.2826 9.33594Z" fill="#CAFF33"/>
<path d="M17.2828 9.33594L12.405 17.4294L17.2828 20.3127V15.2123V9.33594Z" fill="#CAFF33"/>
<path d="M17.2827 21.9013L17.2227 21.9745V25.7178L17.2827 25.8931L22.1634 19.0195L17.2827 21.9013Z" fill="#CAFF33"/>
<path d="M17.2826 25.8932V21.9013L12.4048 19.0195L17.2826 25.8932Z" fill="#CAFF33"/>
<path d="M17.2827 20.3112L22.1604 17.428L17.2827 15.2109V20.3112Z" fill="#CAFF33"/>
<path d="M12.4048 17.428L17.2825 20.3113V15.2109L12.4048 17.428Z" fill="#CAFF33"/>
</g>
</svg>
