<svg width="35" height="35" viewBox="0 0 35 35" fill="none" xmlns="http://www.w3.org/2000/svg">
<path d="M34.5872 17.343C34.5872 26.8696 26.8646 34.5925 17.3381 34.5925C7.81149 34.5925 0.0887451 26.8696 0.0887451 17.343C0.0887451 7.8165 7.81149 0.09375 17.3381 0.09375C26.8645 0.09375 34.5872 7.8165 34.5872 17.343Z" fill="#262626"/>
<path d="M22.1855 24.547L21.7875 22.7396C21.7649 22.6333 21.7081 22.5537 21.6169 22.5009C21.5184 22.4478 21.4199 22.4404 21.3215 22.4783L21.2645 22.5009L21.1279 22.535C21.0672 22.5499 20.9971 22.5671 20.9176 22.586C20.838 22.605 20.7453 22.6238 20.6391 22.6429C20.5333 22.6618 20.421 22.679 20.3038 22.6941C20.1864 22.709 20.0597 22.7225 19.9231 22.7339C19.7866 22.7451 19.6503 22.7508 19.5138 22.7508C18.5512 22.7508 17.6852 22.4913 16.9161 21.9722C16.1468 21.4529 15.5803 20.7499 15.2165 19.8634H19.6159C19.6994 19.8634 19.7752 19.835 19.8431 19.778C19.9116 19.7213 19.9533 19.6513 19.9681 19.5676L20.241 18.2944C20.2638 18.181 20.241 18.0786 20.173 17.9875C20.0972 17.8965 20.0022 17.851 19.8887 17.851H14.6709C14.6482 17.3356 14.6482 16.9378 14.6709 16.6573H20.2186C20.4234 16.6573 20.5445 16.5589 20.5824 16.3618L20.8552 15.0658C20.8778 14.9597 20.8517 14.8613 20.7756 14.7703C20.7077 14.6793 20.6129 14.6337 20.4917 14.6337H15.1712C15.5501 13.7849 16.1185 13.118 16.8765 12.6329C17.6344 12.1477 18.4908 11.9053 19.4457 11.9053C19.4761 11.8901 19.5878 11.894 19.7809 11.9167C19.9741 11.9393 20.0842 11.9488 20.1106 11.945C20.1368 11.9413 20.2357 11.9527 20.4061 11.9791C20.5767 12.0056 20.662 12.0189 20.662 12.0189L20.8609 12.0586C20.9179 12.0701 20.9615 12.0794 20.9917 12.0871L21.0372 12.0984C21.1357 12.1288 21.2264 12.1193 21.3101 12.0701C21.3935 12.0207 21.4466 11.9469 21.4694 11.8484L21.9583 10.0408C21.9809 9.94229 21.9694 9.85134 21.9242 9.768C21.8559 9.6769 21.78 9.62008 21.6967 9.59742C20.9995 9.42314 20.2641 9.33594 19.4912 9.33594C17.7933 9.33594 16.2759 9.82112 14.9381 10.7911C13.6004 11.7611 12.6777 13.0421 12.1699 14.6336H11.0559C10.9497 14.6336 10.8626 14.6676 10.7944 14.7358C10.7263 14.8039 10.6921 14.8911 10.6921 14.9973V16.2933C10.6921 16.3994 10.7262 16.4866 10.7944 16.5546C10.8627 16.6229 10.9499 16.6569 11.0559 16.6569H11.8176C11.7947 17.0208 11.7911 17.4184 11.8061 17.8506H11.0559C10.9574 17.8506 10.8721 17.8866 10.8001 17.9586C10.7282 18.0305 10.6921 18.1158 10.6921 18.2142V19.4989C10.6921 19.5976 10.7282 19.6826 10.8001 19.7548C10.8722 19.8268 10.9574 19.8625 11.0559 19.8625H12.1359C12.6134 21.5374 13.5153 22.8695 14.8416 23.8585C16.168 24.8478 17.7179 25.3422 19.4912 25.3422C19.6353 25.3422 19.7811 25.3386 19.929 25.3307C20.0771 25.3231 20.2152 25.3117 20.3441 25.2967C20.4728 25.2817 20.5998 25.2648 20.7249 25.2457C20.8499 25.2266 20.9636 25.208 21.0658 25.1887C21.1682 25.1699 21.2648 25.151 21.3557 25.1322C21.4467 25.113 21.5282 25.0924 21.6003 25.0695C21.6722 25.0471 21.7326 25.0299 21.782 25.0187C21.8314 25.0073 21.8711 24.9938 21.9013 24.9789L21.9582 24.9675C22.0416 24.9372 22.1061 24.8822 22.1515 24.8025C22.197 24.7233 22.2081 24.6379 22.1855 24.547Z" fill="#CAFF33"/>
</svg>
