<svg width="31" height="31" viewBox="0 0 31 31" fill="none" xmlns="http://www.w3.org/2000/svg">
<rect width="30.3466" height="30.2555" rx="15.1278" fill="#CAFF33"/>
<path fill-rule="evenodd" clip-rule="evenodd" d="M15.1732 10.4922C15.4593 10.4922 15.6912 10.7228 15.6912 11.0073V14.6128H19.3166C19.6026 14.6128 19.8345 14.8434 19.8345 15.1278C19.8345 15.4123 19.6026 15.6429 19.3166 15.6429H15.6912V19.2484C15.6912 19.5329 15.4593 19.7635 15.1732 19.7635C14.8872 19.7635 14.6553 19.5329 14.6553 19.2484V15.6429H11.0299C10.7438 15.6429 10.512 15.4123 10.512 15.1278C10.512 14.8434 10.7438 14.6128 11.0299 14.6128H14.6553V11.0073C14.6553 10.7228 14.8872 10.4922 15.1732 10.4922Z" fill="#1A1A1A"/>
</svg>
