<svg width="31" height="31" viewBox="0 0 31 31" fill="none" xmlns="http://www.w3.org/2000/svg">
<rect width="30.3466" height="30.2555" rx="15.1278" fill="#CAFF33"/>
<path fill-rule="evenodd" clip-rule="evenodd" d="M17.8259 8.73267C17.5923 8.98281 17.6069 9.3739 17.8584 9.60618L19.599 11.2135L12.4806 11.2135C12.1374 11.2135 11.8591 11.4903 11.8591 11.8316C11.8591 12.173 12.1374 12.4497 12.4806 12.4497L19.599 12.4497L17.8584 14.0571C17.6069 14.2894 17.5923 14.6804 17.8259 14.9306C18.0594 15.1807 18.4527 15.1952 18.7042 14.9629L21.6046 12.2846C21.7312 12.1676 21.8032 12.0035 21.8032 11.8316C21.8032 11.6598 21.7312 11.4956 21.6046 11.3787L18.7042 8.70032C18.4527 8.46804 18.0594 8.48252 17.8259 8.73267ZM12.5217 15.3256C12.2882 15.0755 11.8949 15.061 11.6434 15.2933L8.74303 17.9716C8.61639 18.0886 8.54443 18.2527 8.54443 18.4246C8.54443 18.5964 8.61639 18.7605 8.74303 18.8775L11.6434 21.5559C11.8949 21.7882 12.2882 21.7737 12.5217 21.5235C12.7553 21.2734 12.7407 20.8823 12.4892 20.65L10.7486 19.0427H17.867C18.2102 19.0427 18.4885 18.7659 18.4885 18.4246C18.4885 18.0832 18.2102 17.8065 17.867 17.8065H10.7486L12.4892 16.1991C12.7407 15.9668 12.7553 15.5758 12.5217 15.3256Z" fill="#1C1C1C"/>
</svg>
