<svg width="24" height="24" viewBox="0 0 24 24" fill="none" xmlns="http://www.w3.org/2000/svg">
<path d="M10.5024 14.9505C9.82851 14.9505 9.43379 14.5711 9.43379 13.8904V13.1027C6.60356 12.9081 3.78295 12.3247 0.856445 11.2062V9.60161C4.45681 11.1965 8.06681 11.7606 11.9945 11.7606C15.9318 11.7606 19.5418 11.1965 23.1422 9.60161V11.2062C20.2157 12.3247 17.395 12.9081 14.5648 13.1027V13.8904C14.5648 14.5711 14.1701 14.9505 13.4962 14.9505H10.5024ZM3.83108 21.4177H20.1675C22.1602 21.4177 23.1422 20.4452 23.1422 18.4515V8.98893C23.1422 6.99526 22.1602 6.02275 20.1675 6.02275H3.83108C1.84799 6.02275 0.856445 6.99526 0.856445 8.98893V18.4515C0.856445 20.4452 1.84799 21.4177 3.83108 21.4177ZM7.11378 6.86884H8.6059V5.14748C8.6059 4.40837 9.03911 3.99019 9.78999 3.99019H14.2086C14.9595 3.99019 15.3831 4.40837 15.3831 5.14748V6.84939H16.8752V5.25446C16.8752 3.42613 15.9221 2.57031 14.1798 2.57031H9.80921C8.16308 2.57031 7.11378 3.42613 7.11378 5.25446V6.86884Z" fill="#B3B3B3"/>
</svg>
