<svg width="98" height="98" viewBox="0 0 98 98" fill="none" xmlns="http://www.w3.org/2000/svg">
<rect width="98" height="98" rx="49" fill="url(#paint0_linear_14_206560)" fill-opacity="0.05"/>
<rect x="12" y="12" width="74" height="74" rx="37" fill="url(#paint1_linear_14_206560)" fill-opacity="0.1"/>
<rect x="12.5" y="12.5" width="73" height="73" rx="36.5" stroke="url(#paint2_linear_14_206560)" stroke-opacity="0.2"/>
<path d="M49 42.625C47.2396 42.625 45.8125 44.0521 45.8125 45.8125C45.8125 47.5729 47.2396 49 49 49C50.7604 49 52.1875 47.5729 52.1875 45.8125C52.1875 44.0521 50.7604 42.625 49 42.625Z" fill="#CAFF33"/>
<path fill-rule="evenodd" clip-rule="evenodd" d="M34.125 38.9062C34.125 37.4392 35.3142 36.25 36.7812 36.25H61.2188C62.6858 36.25 63.875 37.4392 63.875 38.9062V52.7188C63.875 54.1858 62.6858 55.375 61.2188 55.375H36.7812C35.3142 55.375 34.125 54.1858 34.125 52.7188V38.9062ZM43.6875 45.8125C43.6875 42.8785 46.066 40.5 49 40.5C51.934 40.5 54.3125 42.8785 54.3125 45.8125C54.3125 48.7465 51.934 51.125 49 51.125C46.066 51.125 43.6875 48.7465 43.6875 45.8125ZM58.5625 44.75C57.9757 44.75 57.5 45.2257 57.5 45.8125V45.8231C57.5 46.4099 57.9757 46.8856 58.5625 46.8856H58.5731C59.1599 46.8856 59.6356 46.4099 59.6356 45.8231V45.8125C59.6356 45.2257 59.1599 44.75 58.5731 44.75H58.5625ZM38.375 45.8125C38.375 45.2257 38.8507 44.75 39.4375 44.75H39.4481C40.0349 44.75 40.5106 45.2257 40.5106 45.8125V45.8231C40.5106 46.4099 40.0349 46.8856 39.4481 46.8856H39.4375C38.8507 46.8856 38.375 46.4099 38.375 45.8231V45.8125Z" fill="#CAFF33"/>
<path d="M35.1875 57.5C34.6007 57.5 34.125 57.9757 34.125 58.5625C34.125 59.1493 34.6007 59.625 35.1875 59.625C42.8376 59.625 50.247 60.6481 57.2872 62.5644C58.9738 63.0235 60.6875 61.7738 60.6875 59.9864V58.5625C60.6875 57.9757 60.2118 57.5 59.625 57.5H35.1875Z" fill="#CAFF33"/>
<defs>
<linearGradient id="paint0_linear_14_206560" x1="49" y1="0" x2="49" y2="98" gradientUnits="userSpaceOnUse">
<stop stop-color="#CAFF33"/>
<stop offset="1" stop-color="#CAFF33" stop-opacity="0"/>
</linearGradient>
<linearGradient id="paint1_linear_14_206560" x1="49" y1="-37" x2="49" y2="203" gradientUnits="userSpaceOnUse">
<stop stop-color="#CAFF33"/>
<stop offset="0.467671" stop-color="#CAFF33" stop-opacity="0"/>
</linearGradient>
<linearGradient id="paint2_linear_14_206560" x1="49" y1="-116.5" x2="49" y2="153" gradientUnits="userSpaceOnUse">
<stop stop-color="#CAFF33"/>
<stop offset="0.716291" stop-color="#CAFF33" stop-opacity="0"/>
</linearGradient>
</defs>
</svg>
