<svg width="98" height="98" viewBox="0 0 98 98" fill="none" xmlns="http://www.w3.org/2000/svg">
<rect width="98" height="98" rx="49" fill="url(#paint0_linear_14_206539)" fill-opacity="0.05"/>
<rect x="12" y="12" width="74" height="74" rx="37" fill="url(#paint1_linear_14_206539)" fill-opacity="0.1"/>
<rect x="12.5" y="12.5" width="73" height="73" rx="36.5" stroke="url(#paint2_linear_14_206539)" stroke-opacity="0.2"/>
<path d="M46.8789 53.1831C45.9243 53.1831 45.3651 52.6457 45.3651 51.6813V50.5654C41.3556 50.2898 37.3597 49.4632 33.2139 47.8787V45.6055C38.3144 47.865 43.4286 48.6641 48.9928 48.6641C54.5707 48.6641 59.6848 47.865 64.7853 45.6055V47.8787C60.6394 49.4632 56.6435 50.2898 52.6341 50.5654V51.6813C52.6341 52.6457 52.0749 53.1831 51.1202 53.1831H46.8789ZM37.4279 62.3449H60.5712C63.3943 62.3449 64.7853 60.9673 64.7853 58.1429V44.7376C64.7853 41.9132 63.3943 40.5355 60.5712 40.5355H37.4279C34.6186 40.5355 33.2139 41.9132 33.2139 44.7376V58.1429C33.2139 60.9673 34.6186 62.3449 37.4279 62.3449ZM42.0784 41.7341H44.1923V39.2955C44.1923 38.2484 44.806 37.656 45.8697 37.656H52.1294C53.1932 37.656 53.7933 38.2484 53.7933 39.2955V41.7066H55.9071V39.4471C55.9071 36.8569 54.5569 35.6445 52.0886 35.6445H45.8969C43.5649 35.6445 42.0784 36.8569 42.0784 39.4471V41.7341Z" fill="#CAFF33"/>
<defs>
<linearGradient id="paint0_linear_14_206539" x1="49" y1="0" x2="49" y2="98" gradientUnits="userSpaceOnUse">
<stop stop-color="#CAFF33"/>
<stop offset="1" stop-color="#CAFF33" stop-opacity="0"/>
</linearGradient>
<linearGradient id="paint1_linear_14_206539" x1="49" y1="-37" x2="49" y2="203" gradientUnits="userSpaceOnUse">
<stop stop-color="#CAFF33"/>
<stop offset="0.467671" stop-color="#CAFF33" stop-opacity="0"/>
</linearGradient>
<linearGradient id="paint2_linear_14_206539" x1="49" y1="-116.5" x2="49" y2="153" gradientUnits="userSpaceOnUse">
<stop stop-color="#CAFF33"/>
<stop offset="0.716291" stop-color="#CAFF33" stop-opacity="0"/>
</linearGradient>
</defs>
</svg>
