<svg width="94" height="94" viewBox="0 0 94 94" fill="none" xmlns="http://www.w3.org/2000/svg">
<rect width="94" height="94" rx="47" fill="url(#paint0_linear_14_207692)" fill-opacity="0.05"/>
<rect x="12" y="12" width="70" height="70" rx="35" fill="url(#paint1_linear_14_207692)" fill-opacity="0.1"/>
<rect x="12.5" y="12.5" width="69" height="69" rx="34.5" stroke="url(#paint2_linear_14_207692)" stroke-opacity="0.2"/>
<path d="M58.0533 53.4308C57.6374 54.3916 57.1451 55.276 56.5748 56.0891C55.7973 57.1976 55.1608 57.9648 54.6702 58.3909C53.9097 59.0902 53.095 59.4484 52.2225 59.4688C51.5961 59.4688 50.8407 59.2905 49.9614 58.929C49.0792 58.5691 48.2685 58.3909 47.5272 58.3909C46.7498 58.3909 45.916 58.5691 45.0241 58.929C44.1309 59.2905 43.4114 59.479 42.8612 59.4976C42.0245 59.5333 41.1906 59.1649 40.3581 58.3909C39.8268 57.9275 39.1622 57.1331 38.3661 56.0076C37.512 54.8058 36.8097 53.4122 36.2596 51.8233C35.6704 50.1072 35.375 48.4454 35.375 46.8365C35.375 44.9935 35.7732 43.404 36.5709 42.072C37.1977 41.0021 38.0317 40.1581 39.0755 39.5385C40.1193 38.9189 41.2471 38.6032 42.4616 38.583C43.1262 38.583 43.9977 38.7886 45.0807 39.1926C46.1606 39.5979 46.854 39.8035 47.158 39.8035C47.3853 39.8035 48.1556 39.5631 49.4615 39.0839C50.6964 38.6395 51.7387 38.4555 52.5925 38.528C54.9062 38.7147 56.6444 39.6268 57.8004 41.2699C55.7311 42.5237 54.7076 44.2797 54.7279 46.5325C54.7466 48.2871 55.3832 49.7473 56.6342 50.9067C57.2011 51.4448 57.8343 51.8607 58.5388 52.156C58.386 52.5991 58.2247 53.0235 58.0533 53.4308ZM52.747 32.5502C52.747 33.9255 52.2445 35.2096 51.243 36.3982C50.0344 37.8112 48.5725 38.6276 46.9873 38.4988C46.9671 38.3338 46.9554 38.1602 46.9554 37.9777C46.9554 36.6574 47.5301 35.2444 48.5508 34.0891C49.0604 33.5041 49.7085 33.0178 50.4944 32.6298C51.2787 32.2476 52.0205 32.0362 52.7181 32C52.7385 32.1839 52.747 32.3677 52.747 32.5501V32.5502Z" fill="#CAFF33"/>
<defs>
<linearGradient id="paint0_linear_14_207692" x1="47" y1="0" x2="47" y2="94" gradientUnits="userSpaceOnUse">
<stop stop-color="#CAFF33"/>
<stop offset="1" stop-color="#CAFF33" stop-opacity="0"/>
</linearGradient>
<linearGradient id="paint1_linear_14_207692" x1="47" y1="-34.3514" x2="47" y2="192.676" gradientUnits="userSpaceOnUse">
<stop stop-color="#CAFF33"/>
<stop offset="0.467671" stop-color="#CAFF33" stop-opacity="0"/>
</linearGradient>
<linearGradient id="paint2_linear_14_207692" x1="47" y1="-109.554" x2="47" y2="145.378" gradientUnits="userSpaceOnUse">
<stop stop-color="#CAFF33"/>
<stop offset="0.716291" stop-color="#CAFF33" stop-opacity="0"/>
</linearGradient>
</defs>
</svg>
