<svg width="24" height="28" viewBox="0 0 24 28" fill="none" xmlns="http://www.w3.org/2000/svg">
<path d="M22.6783 21.4308C22.2624 22.3916 21.7701 23.276 21.1998 24.0891C20.4223 25.1976 19.7858 25.9648 19.2952 26.3909C18.5347 27.0902 17.72 27.4484 16.8475 27.4688C16.2211 27.4688 15.4657 27.2905 14.5864 26.929C13.7042 26.5691 12.8935 26.3909 12.1522 26.3909C11.3748 26.3909 10.541 26.5691 9.64913 26.929C8.75592 27.2905 8.03636 27.479 7.48621 27.4976C6.64952 27.5333 5.81555 27.1649 4.98311 26.3909C4.4518 25.9275 3.78724 25.1331 2.99112 24.0076C2.13695 22.8058 1.43471 21.4122 0.884555 19.8233C0.295361 18.1072 0 16.4454 0 14.8365C0 12.9935 0.398228 11.404 1.19587 10.072C1.82275 9.00208 2.65672 8.15809 3.7005 7.53851C4.74428 6.91893 5.87208 6.6032 7.08662 6.583C7.75119 6.583 8.62267 6.78856 9.70566 7.19256C10.7856 7.59792 11.479 7.80349 11.783 7.80349C12.0103 7.80349 12.7806 7.56312 14.0865 7.08392C15.3214 6.63952 16.3637 6.45552 17.2175 6.528C19.5312 6.71472 21.2694 7.62678 22.4254 9.26994C20.3561 10.5237 19.3326 12.2797 19.3529 14.5325C19.3716 16.2871 20.0082 17.7473 21.2592 18.9067C21.8261 19.4448 22.4593 19.8607 23.1638 20.156C23.011 20.5991 22.8497 21.0235 22.6783 21.4308ZM17.372 0.550157C17.372 1.92547 16.8695 3.2096 15.868 4.39817C14.6594 5.81115 13.1975 6.62764 11.6123 6.4988C11.5921 6.33381 11.5804 6.16016 11.5804 5.97768C11.5804 4.65738 12.1551 3.2444 13.1758 2.08909C13.6854 1.50414 14.3335 1.01776 15.1194 0.629768C15.9037 0.247563 16.6455 0.0361957 17.3431 0C17.3635 0.183858 17.372 0.367728 17.372 0.550139V0.550157Z" fill="#CAFF33"/>
</svg>
