<svg width="94" height="94" viewBox="0 0 94 94" fill="none" xmlns="http://www.w3.org/2000/svg">
<rect width="94" height="94" rx="47" fill="url(#paint0_linear_14_207533)" fill-opacity="0.05"/>
<rect x="12" y="12" width="70" height="70" rx="35" fill="url(#paint1_linear_14_207533)" fill-opacity="0.1"/>
<rect x="12.5" y="12.5" width="69" height="69" rx="34.5" stroke="url(#paint2_linear_14_207533)" stroke-opacity="0.2"/>
<g clip-path="url(#clip0_14_207533)">
<path d="M61.7083 47.3448C61.7083 46.3252 61.6256 45.3 61.4493 44.2969H47.3008V50.0731H55.4029C55.0667 51.936 53.9864 53.584 52.4046 54.6312V58.3792H57.2383C60.0768 55.7667 61.7083 51.9085 61.7083 47.3448Z" fill="#CAFF33"/>
<path d="M47.2989 62.0007C51.3445 62.0007 54.7562 60.6724 57.242 58.3795L52.4082 54.6316C51.0634 55.5465 49.3272 56.0646 47.3044 56.0646C43.3911 56.0646 40.0731 53.4245 38.8826 49.875H33.8945V53.7387C36.4409 58.8039 41.6274 62.0007 47.2989 62.0007Z" fill="#CAFF33"/>
<path d="M38.879 49.8764C38.2506 48.0134 38.2506 45.9962 38.879 44.1332V40.2695H33.8964C31.7689 44.508 31.7689 49.5016 33.8964 53.74L38.879 49.8764Z" fill="#CAFF33"/>
<path d="M47.2989 37.9371C49.4374 37.904 51.5043 38.7087 53.0531 40.1858L57.3356 35.9033C54.6239 33.3569 51.0248 31.9569 47.2989 32.001C41.6274 32.001 36.4409 35.1978 33.8945 40.2685L38.8771 44.1322C40.0621 40.5772 43.3856 37.9371 47.2989 37.9371Z" fill="#CAFF33"/>
</g>
<defs>
<linearGradient id="paint0_linear_14_207533" x1="47" y1="0" x2="47" y2="94" gradientUnits="userSpaceOnUse">
<stop stop-color="#CAFF33"/>
<stop offset="1" stop-color="#CAFF33" stop-opacity="0"/>
</linearGradient>
<linearGradient id="paint1_linear_14_207533" x1="47" y1="-34.3514" x2="47" y2="192.676" gradientUnits="userSpaceOnUse">
<stop stop-color="#CAFF33"/>
<stop offset="0.467671" stop-color="#CAFF33" stop-opacity="0"/>
</linearGradient>
<linearGradient id="paint2_linear_14_207533" x1="47" y1="-109.554" x2="47" y2="145.378" gradientUnits="userSpaceOnUse">
<stop stop-color="#CAFF33"/>
<stop offset="0.716291" stop-color="#CAFF33" stop-opacity="0"/>
</linearGradient>
<clipPath id="clip0_14_207533">
<rect width="30" height="30" fill="white" transform="translate(32 32)"/>
</clipPath>
</defs>
</svg>
