<svg width="30" height="30" viewBox="0 0 30 30" fill="none" xmlns="http://www.w3.org/2000/svg">
<g clip-path="url(#clip0_14_207535)">
<path d="M29.7083 15.3448C29.7083 14.3252 29.6256 13.3 29.4493 12.2969H15.3008V18.0731H23.4029C23.0667 19.936 21.9864 21.584 20.4046 22.6312V26.3792H25.2383C28.0768 23.7667 29.7083 19.9085 29.7083 15.3448Z" fill="#CAFF33"/>
<path d="M15.2989 30.0007C19.3445 30.0007 22.7562 28.6724 25.242 26.3795L20.4082 22.6316C19.0634 23.5465 17.3272 24.0646 15.3044 24.0646C11.3911 24.0646 8.07311 21.4245 6.88259 17.875H1.89453V21.7387C4.44092 26.8039 9.6274 30.0007 15.2989 30.0007Z" fill="#CAFF33"/>
<path d="M6.87895 17.8764C6.25063 16.0134 6.25063 13.9962 6.87895 12.1332V8.26953H1.89641C-0.231095 12.508 -0.231095 17.5016 1.89641 21.74L6.87895 17.8764Z" fill="#CAFF33"/>
<path d="M15.2989 5.93708C17.4374 5.90401 19.5043 6.70871 21.0531 8.18583L25.3356 3.90327C22.6239 1.35688 19.0248 -0.0430825 15.2989 0.00101083C9.6274 0.00101083 4.44092 3.19778 1.89453 8.26851L6.87708 12.1322C8.06209 8.57716 11.3856 5.93708 15.2989 5.93708Z" fill="#CAFF33"/>
</g>
<defs>
<clipPath id="clip0_14_207535">
<rect width="30" height="30" fill="white"/>
</clipPath>
</defs>
</svg>
