<svg width="156" height="41" viewBox="0 0 156 41" fill="none" xmlns="http://www.w3.org/2000/svg">
<path d="M10 19.9987L20 9.9987L30 19.9987L20 29.9987L10 19.9987Z" fill="#CAFF33"/>
<path d="M36.6667 13.332L30 19.9987V9.9987H20L26.6667 3.33203H36.6667V13.332Z" fill="#CAFF33"/>
<path d="M36.6667 26.6654L30 19.9987V29.9987H20L26.6667 36.6654H36.6667V26.6654Z" fill="#CAFF33"/>
<path d="M3.33337 26.6654L10 19.9987V29.9987H20L13.3334 36.6654H3.33337L3.33337 26.6654Z" fill="#CAFF33"/>
<path d="M3.33337 13.332L10 19.9987V9.9987H20L13.3334 3.33203H3.33337L3.33337 13.332Z" fill="#CAFF33"/>
<path d="M59.3537 11.332L53.2085 22.1829V29.3311H50.3122V22.1829L44.167 11.332H47.4663L51.7729 19.303L56.0544 11.332H59.3537Z" fill="white"/>
<path d="M64.5084 29.6654C62.6615 29.6654 61.0916 29.014 59.7987 27.7112C58.5059 26.4084 57.8595 24.8056 57.8595 22.9029C57.8595 21.0001 58.5059 19.3973 59.7987 18.0945C61.0916 16.7917 62.6615 16.1404 64.5084 16.1404C66.3721 16.1404 67.942 16.7917 69.218 18.0945C70.5108 19.3973 71.1573 21.0001 71.1573 22.9029C71.1573 24.8056 70.5108 26.4084 69.218 27.7112C67.942 29.014 66.3721 29.6654 64.5084 29.6654ZM61.7128 25.8084C62.4684 26.5798 63.4002 26.9655 64.5084 26.9655C65.6165 26.9655 66.5484 26.5798 67.3039 25.8084C68.0595 25.037 68.4373 24.0685 68.4373 22.9029C68.4373 21.7372 68.0595 20.7687 67.3039 19.9973C66.5484 19.2259 65.6165 18.8402 64.5084 18.8402C63.4002 18.8402 62.4684 19.2259 61.7128 19.9973C60.9573 20.7687 60.5795 21.7372 60.5795 22.9029C60.5795 24.0685 60.9573 25.037 61.7128 25.8084Z" fill="white"/>
<path d="M82.1042 16.4746H84.8242V29.3311H82.1042V27.6855C81.2815 29.0054 79.9802 29.6654 78.2005 29.6654C76.7565 29.6654 75.5896 29.194 74.6997 28.2512C73.8098 27.3083 73.3649 26.0141 73.3649 24.3685V16.4746H76.0849V24.0857C76.0849 25.0456 76.3368 25.7827 76.8405 26.297C77.3442 26.8112 78.0326 27.0684 78.9057 27.0684C79.8627 27.0684 80.635 26.7684 81.2227 26.1684C81.8103 25.5513 82.1042 24.6171 82.1042 23.3657V16.4746Z" fill="white"/>
<path d="M90.7248 18.6345C91.4132 17.0403 92.706 16.2432 94.6033 16.2432V19.2516C93.5623 19.1831 92.6557 19.4402 91.8833 20.023C91.111 20.5887 90.7248 21.5315 90.7248 22.8514V29.3311H88.0048V16.4746H90.7248V18.6345Z" fill="white"/>
<path d="M107.166 19.9973C107.938 20.4087 108.542 20.9744 108.979 21.6944C109.415 22.4143 109.634 23.2457 109.634 24.1885C109.634 25.6627 109.122 26.8884 108.097 27.8655C107.073 28.8426 105.822 29.3311 104.345 29.3311H96.7893V11.332H103.791C105.235 11.332 106.452 11.812 107.443 12.772C108.45 13.7148 108.954 14.8976 108.954 16.3203C108.954 17.8803 108.358 19.1059 107.166 19.9973ZM103.791 14.109H99.6856V18.8402H103.791C104.429 18.8402 104.966 18.6174 105.403 18.1717C105.839 17.7088 106.057 17.1432 106.057 16.4746C106.057 15.8061 105.839 15.249 105.403 14.8033C104.966 14.3404 104.429 14.109 103.791 14.109ZM104.345 26.5541C105.016 26.5541 105.579 26.3141 106.032 25.8341C106.502 25.337 106.737 24.7371 106.737 24.0342C106.737 23.3314 106.502 22.74 106.032 22.26C105.579 21.7629 105.016 21.5144 104.345 21.5144H99.6856V26.5541H104.345Z" fill="white"/>
<path d="M122.081 16.4746H124.801V29.3311H122.081V27.4798C121.057 28.9368 119.588 29.6654 117.674 29.6654C115.944 29.6654 114.467 29.014 113.241 27.7112C112.015 26.3912 111.403 24.7885 111.403 22.9029C111.403 21.0001 112.015 19.3973 113.241 18.0945C114.467 16.7917 115.944 16.1404 117.674 16.1404C119.588 16.1404 121.057 16.8603 122.081 18.3002V16.4746ZM115.256 25.8598C116.012 26.6312 116.96 27.0169 118.102 27.0169C119.244 27.0169 120.192 26.6312 120.948 25.8598C121.703 25.0713 122.081 24.0857 122.081 22.9029C122.081 21.7201 121.703 20.743 120.948 19.9716C120.192 19.1831 119.244 18.7888 118.102 18.7888C116.96 18.7888 116.012 19.1831 115.256 19.9716C114.5 20.743 114.123 21.7201 114.123 22.9029C114.123 24.0857 114.5 25.0713 115.256 25.8598Z" fill="white"/>
<path d="M134.595 16.1404C136.039 16.1404 137.206 16.6118 138.096 17.5546C138.986 18.4974 139.431 19.7916 139.431 21.4372V29.3311H136.711V21.7201C136.711 20.7601 136.459 20.023 135.955 19.5087C135.452 18.9945 134.763 18.7374 133.89 18.7374C132.933 18.7374 132.161 19.0459 131.573 19.663C130.985 20.263 130.692 21.1887 130.692 22.44V29.3311H127.972V16.4746H130.692V18.1203C131.514 16.8003 132.815 16.1404 134.595 16.1404Z" fill="white"/>
<path d="M155.834 29.3311H152.383L145.432 20.7687V29.3311H142.536V11.332H145.432V19.4059L152.131 11.332H155.582L148.454 20.1001L155.834 29.3311Z" fill="white"/>
</svg>
