<svg width="17" height="15" viewBox="0 0 17 15" fill="none" xmlns="http://www.w3.org/2000/svg">
    <path fill-rule="evenodd" clip-rule="evenodd" d="M0 7.5C5.43175e-08 7.08579 0.335787 6.75 0.75 6.75L13.9393 6.75L8.46967 1.28033C8.17678 0.987437 8.17678 0.512564 8.46967 0.21967C8.76256 -0.0732232 9.23744 -0.0732232 9.53033 0.21967L16.2803 6.96967C16.5732 7.26256 16.5732 7.73744 16.2803 8.03033L9.53033 14.7803C9.23744 15.0732 8.76256 15.0732 8.46967 14.7803C8.17678 14.4874 8.17678 14.0126 8.46967 13.7197L13.9393 8.25L0.75 8.25C0.335786 8.25 -5.43176e-08 7.91421 0 7.5Z" fill="#FFFFFF"/>
</svg>