<svg width="156" height="41" viewBox="0 0 156 41" fill="none" xmlns="http://www.w3.org/2000/svg">
<path d="M10.0007 19.9987L20.0007 9.9987L30.0007 19.9987L20.0007 29.9987L10.0007 19.9987Z" fill="#CAFF33"/>
<path d="M36.6673 13.332L30.0007 19.9987V9.9987H20.0007L26.6673 3.33203H36.6673V13.332Z" fill="#CAFF33"/>
<path d="M36.6673 26.6654L30.0007 19.9987V29.9987H20.0007L26.6673 36.6654H36.6673V26.6654Z" fill="#CAFF33"/>
<path d="M3.33398 26.6654L10.0007 19.9987V29.9987H20.0007L13.334 36.6654H3.33398L3.33398 26.6654Z" fill="#CAFF33"/>
<path d="M3.33398 13.332L10.0007 19.9987V9.9987H20.0007L13.334 3.33203H3.33398L3.33398 13.332Z" fill="#CAFF33"/>
<path d="M59.3546 11.332L53.2095 22.1829V29.3311H50.3132V22.1829L44.168 11.332H47.4672L51.7739 19.303L56.0554 11.332H59.3546Z" fill="white"/>
<path d="M64.5093 29.6654C62.6624 29.6654 61.0926 29.014 59.7997 27.7112C58.5069 26.4084 57.8605 24.8056 57.8605 22.9029C57.8605 21.0001 58.5069 19.3973 59.7997 18.0945C61.0926 16.7917 62.6624 16.1404 64.5093 16.1404C66.3731 16.1404 67.9429 16.7917 69.219 18.0945C70.5118 19.3973 71.1582 21.0001 71.1582 22.9029C71.1582 24.8056 70.5118 26.4084 69.219 27.7112C67.9429 29.014 66.3731 29.6654 64.5093 29.6654ZM61.7138 25.8084C62.4693 26.5798 63.4012 26.9655 64.5093 26.9655C65.6175 26.9655 66.5494 26.5798 67.3049 25.8084C68.0605 25.037 68.4382 24.0685 68.4382 22.9029C68.4382 21.7372 68.0605 20.7687 67.3049 19.9973C66.5494 19.2259 65.6175 18.8402 64.5093 18.8402C63.4012 18.8402 62.4693 19.2259 61.7138 19.9973C60.9582 20.7687 60.5805 21.7372 60.5805 22.9029C60.5805 24.0685 60.9582 25.037 61.7138 25.8084Z" fill="white"/>
<path d="M82.1051 16.4746H84.8251V29.3311H82.1051V27.6855C81.2824 29.0054 79.9812 29.6654 78.2014 29.6654C76.7575 29.6654 75.5906 29.194 74.7007 28.2512C73.8108 27.3083 73.3659 26.0141 73.3659 24.3685V16.4746H76.0859V24.0857C76.0859 25.0456 76.3377 25.7827 76.8414 26.297C77.3451 26.8112 78.0335 27.0684 78.9066 27.0684C79.8637 27.0684 80.636 26.7684 81.2237 26.1684C81.8113 25.5513 82.1051 24.6171 82.1051 23.3657V16.4746Z" fill="white"/>
<path d="M90.7258 18.6345C91.4142 17.0403 92.707 16.2432 94.6043 16.2432V19.2516C93.5633 19.1831 92.6566 19.4402 91.8843 20.023C91.1119 20.5887 90.7258 21.5315 90.7258 22.8514V29.3311H88.0058V16.4746H90.7258V18.6345Z" fill="white"/>
<path d="M107.167 19.9973C107.939 20.4087 108.543 20.9744 108.98 21.6944C109.416 22.4143 109.635 23.2457 109.635 24.1885C109.635 25.6627 109.123 26.8884 108.098 27.8655C107.074 28.8426 105.823 29.3311 104.346 29.3311H96.7903V11.332H103.792C105.236 11.332 106.453 11.812 107.444 12.772C108.451 13.7148 108.955 14.8976 108.955 16.3203C108.955 17.8803 108.359 19.1059 107.167 19.9973ZM103.792 14.109H99.6866V18.8402H103.792C104.43 18.8402 104.967 18.6174 105.404 18.1717C105.84 17.7088 106.058 17.1432 106.058 16.4746C106.058 15.8061 105.84 15.249 105.404 14.8033C104.967 14.3404 104.43 14.109 103.792 14.109ZM104.346 26.5541C105.017 26.5541 105.58 26.3141 106.033 25.8341C106.503 25.337 106.738 24.7371 106.738 24.0342C106.738 23.3314 106.503 22.74 106.033 22.26C105.58 21.7629 105.017 21.5144 104.346 21.5144H99.6866V26.5541H104.346Z" fill="white"/>
<path d="M122.082 16.4746H124.802V29.3311H122.082V27.4798C121.058 28.9368 119.589 29.6654 117.675 29.6654C115.945 29.6654 114.468 29.014 113.242 27.7112C112.016 26.3912 111.404 24.7885 111.404 22.9029C111.404 21.0001 112.016 19.3973 113.242 18.0945C114.468 16.7917 115.945 16.1404 117.675 16.1404C119.589 16.1404 121.058 16.8603 122.082 18.3002V16.4746ZM115.257 25.8598C116.012 26.6312 116.961 27.0169 118.103 27.0169C119.245 27.0169 120.193 26.6312 120.949 25.8598C121.704 25.0713 122.082 24.0857 122.082 22.9029C122.082 21.7201 121.704 20.743 120.949 19.9716C120.193 19.1831 119.245 18.7888 118.103 18.7888C116.961 18.7888 116.012 19.1831 115.257 19.9716C114.501 20.743 114.124 21.7201 114.124 22.9029C114.124 24.0857 114.501 25.0713 115.257 25.8598Z" fill="white"/>
<path d="M134.596 16.1404C136.04 16.1404 137.207 16.6118 138.097 17.5546C138.987 18.4974 139.432 19.7916 139.432 21.4372V29.3311H136.712V21.7201C136.712 20.7601 136.46 20.023 135.956 19.5087C135.453 18.9945 134.764 18.7374 133.891 18.7374C132.934 18.7374 132.162 19.0459 131.574 19.663C130.986 20.263 130.693 21.1887 130.693 22.44V29.3311H127.973V16.4746H130.693V18.1203C131.515 16.8003 132.816 16.1404 134.596 16.1404Z" fill="white"/>
<path d="M155.835 29.3311H152.384L145.433 20.7687V29.3311H142.537V11.332H145.433V19.4059L152.132 11.332H155.583L148.455 20.1001L155.835 29.3311Z" fill="white"/>
</svg>
