<svg width="100" height="34" viewBox="0 0 100 34" fill="none" xmlns="http://www.w3.org/2000/svg">
<g clip-path="url(#clip0_14_196220)">
<path d="M14.929 2.17969C6.71378 2.17969 0.0537109 8.83957 0.0537109 17.0548C0.0537109 25.2703 6.71378 31.9297 14.929 31.9297C23.1451 31.9297 29.8044 25.2703 29.8044 17.0548C29.8044 8.8401 23.1451 2.1804 14.9288 2.1804L14.929 2.17969ZM21.7507 23.6338C21.4843 24.0708 20.9123 24.2094 20.4753 23.9411C16.9827 21.8078 12.586 21.3246 7.40813 22.5077C6.90917 22.6213 6.4118 22.3087 6.29812 21.8096C6.1839 21.3104 6.49529 20.8131 6.9955 20.6994C12.6619 19.4048 17.5224 19.9622 21.4434 22.3585C21.8804 22.6267 22.0189 23.1969 21.7507 23.6338ZM23.5714 19.5835C23.2357 20.1292 22.5216 20.3015 21.9763 19.9658C17.9778 17.5081 11.8828 16.7963 7.15341 18.2319C6.54005 18.4172 5.89224 18.0715 5.70608 17.4592C5.52134 16.8459 5.86719 16.1993 6.47948 16.0128C11.8817 14.3736 18.5978 15.1676 23.1895 17.9893C23.7348 18.325 23.9071 19.0391 23.5714 19.5837V19.5835ZM23.7277 15.3659C18.9335 12.5183 11.0236 12.2565 6.44626 13.6457C5.71123 13.8686 4.93392 13.4537 4.71117 12.7187C4.48842 11.9833 4.90301 11.2065 5.63858 10.983C10.8931 9.38791 19.628 9.6961 25.1477 12.9728C25.8103 13.3652 26.027 14.2191 25.6344 14.8793C25.2436 15.5405 24.3874 15.7584 23.7284 15.3659H23.7277ZM40.5244 15.9115C37.9559 15.2991 37.4994 14.8692 37.4994 13.966C37.4994 13.1126 38.3023 12.5384 39.4977 12.5384C40.6559 12.5384 41.8034 12.9744 43.0077 13.8722C43.0432 13.8994 43.0894 13.9102 43.1338 13.9031C43.18 13.8963 43.2191 13.8716 43.2457 13.8345L44.4998 12.0667C44.5513 11.9939 44.5371 11.8936 44.4678 11.838C43.0343 10.6882 41.4215 10.1292 39.535 10.1292C36.7622 10.1292 34.8243 11.7934 34.8243 14.1745C34.8243 16.7279 36.4958 17.6321 39.384 18.33C41.8407 18.8961 42.2563 19.3704 42.2563 20.218C42.2563 21.1577 41.4179 21.7421 40.0679 21.7421C38.5687 21.7421 37.3448 21.2358 35.9771 20.0528C35.9433 20.0226 35.8972 20.0102 35.8545 20.012C35.8083 20.0155 35.7675 20.0368 35.7391 20.0706L34.3322 21.7439C34.2736 21.8149 34.2807 21.9179 34.3482 21.9783C35.9398 23.3994 37.8973 24.149 40.0111 24.149C42.9988 24.149 44.9296 22.5165 44.9296 19.9889C44.935 17.8561 43.6578 16.6748 40.5298 15.9139L40.5244 15.9115ZM51.6903 13.3785C50.3953 13.3785 49.3331 13.8887 48.4556 14.9341V13.7574C48.4556 13.6645 48.381 13.5889 48.2886 13.5889H45.9883C45.896 13.5889 45.8214 13.6645 45.8214 13.7574V26.8312C45.8214 26.9235 45.896 26.9999 45.9883 26.9999H48.2886C48.381 26.9999 48.4556 26.9235 48.4556 26.8312V22.7048C49.3331 23.6871 50.3953 24.1685 51.6903 24.1685C54.0971 24.1685 56.5342 22.3158 56.5342 18.7741C56.5378 15.2316 54.1007 13.3784 51.692 13.3784L51.6903 13.3785ZM53.8591 18.7741C53.8591 20.5768 52.7489 21.8362 51.1574 21.8362C49.5853 21.8362 48.3988 20.52 48.3988 18.7741C48.3988 17.028 49.5853 15.7121 51.1574 15.7121C52.7223 15.7119 53.8591 16.9994 53.8591 18.7739V18.7741ZM62.7779 13.3785C59.6783 13.3785 57.2501 15.7652 57.2501 18.8126C57.2501 21.8273 59.6623 24.188 62.7406 24.188C65.8509 24.188 68.2862 21.8096 68.2862 18.7741C68.2862 15.7488 65.8669 13.3789 62.7779 13.3789V13.3785ZM62.7779 21.854C61.1295 21.854 59.8861 20.5289 59.8861 18.7732C59.8861 17.0095 61.0869 15.7297 62.7406 15.7297C64.3997 15.7297 65.6502 17.0542 65.6502 18.8117C65.6502 20.575 64.4423 21.854 62.7779 21.854ZM74.9047 13.5889H72.3735V11.0015C72.3735 10.9088 72.2989 10.8331 72.2065 10.8331H69.9062C69.8139 10.8331 69.7375 10.9088 69.7375 11.0015V13.5889H68.6326C68.5402 13.5889 68.4656 13.6645 68.4656 13.7574V15.7339C68.4656 15.8266 68.5402 15.9025 68.6326 15.9025H69.7375V21.0173C69.7375 23.0832 70.7659 24.1312 72.7963 24.1312C73.6205 24.1312 74.3043 23.9607 74.9491 23.5948C75.0024 23.5663 75.0344 23.5095 75.0344 23.4491V21.5662C75.0344 21.5094 75.0042 21.4543 74.9545 21.4241C74.9047 21.3921 74.8426 21.3904 74.791 21.417C74.3487 21.639 73.9207 21.7421 73.4411 21.7421C72.7039 21.7421 72.3735 21.4064 72.3735 20.6568V15.9034H74.9047C74.9971 15.9034 75.0717 15.8277 75.0717 15.7348V13.7585C75.0753 13.6656 75.0006 13.5899 74.9065 13.5899L74.9047 13.5889ZM83.7223 13.599V13.2812C83.7223 12.3463 84.0811 11.9294 84.884 11.9294C85.3636 11.9294 85.749 12.0247 86.1807 12.1685C86.234 12.1852 86.289 12.1769 86.3317 12.1451C86.3761 12.1133 86.4009 12.0623 86.4009 12.0083V10.0704C86.4009 9.99629 86.3548 9.93075 86.2819 9.9089C85.8272 9.77337 85.2446 9.63428 84.3706 9.63428C82.248 9.63428 81.1236 10.8304 81.1236 13.0922V13.5789H80.0187C79.9263 13.5789 79.85 13.6546 79.85 13.7473V15.7339C79.85 15.8266 79.9263 15.9025 80.0187 15.9025H81.1236V23.7901C81.1236 23.8843 81.1999 23.9589 81.2923 23.9589H83.5908C83.685 23.9589 83.7596 23.8843 83.7596 23.7901V15.903H85.9071L89.1969 23.7901C88.8238 24.6179 88.4561 24.7831 87.9552 24.7831C87.5502 24.7831 87.1221 24.6623 86.6869 24.4225C86.6461 24.4012 86.5963 24.3976 86.5537 24.4101C86.5093 24.4261 86.472 24.458 86.4542 24.5007L85.6744 26.2112C85.6371 26.293 85.6691 26.3871 85.7473 26.4297C86.5608 26.8703 87.2944 27.0585 88.2021 27.0585C89.9003 27.0585 90.8399 26.2663 91.6659 24.1383L95.6555 13.8292C95.6768 13.7773 95.6697 13.7187 95.6377 13.6727C95.6075 13.627 95.556 13.5995 95.5009 13.5995H93.1065C93.0337 13.5995 92.9697 13.6452 92.9466 13.7125L90.4936 20.7171L87.8078 13.7079C87.7829 13.6427 87.7207 13.5995 87.6515 13.5995H83.7223V13.599ZM78.6101 13.5889H76.3098C76.2174 13.5889 76.141 13.6645 76.141 13.7574V23.7901C76.141 23.8843 76.2174 23.9589 76.3098 23.9589H78.6101C78.7025 23.9589 78.7788 23.8843 78.7788 23.7901V13.7581C78.7788 13.6652 78.7042 13.5896 78.6101 13.5896V13.5889ZM77.4733 9.02039C76.562 9.02039 75.8231 9.75791 75.8231 10.669C75.8231 11.5806 76.562 12.319 77.4733 12.319C78.3845 12.319 79.1217 11.5806 79.1217 10.669C79.1217 9.75809 78.3827 9.02039 77.4733 9.02039ZM97.6201 16.8148C96.7106 16.8148 96.0019 16.0838 96.0019 15.1962C96.0019 14.3086 96.7195 13.5693 97.629 13.5693C98.5384 13.5693 99.2472 14.3001 99.2472 15.187C99.2472 16.0746 98.5295 16.8148 97.6201 16.8148ZM97.629 13.7303C96.7994 13.7303 96.1724 14.3893 96.1724 15.1962C96.1724 16.0029 96.7959 16.653 97.6201 16.653C98.4496 16.653 99.0766 15.9945 99.0766 15.187C99.0766 14.3804 98.4532 13.7303 97.629 13.7303ZM97.9878 15.3534L98.446 15.9943H98.0588L97.6467 15.4064H97.2932V15.9943H96.9699V14.2955H97.7266C98.1228 14.2955 98.3821 14.4974 98.3821 14.8374C98.3839 15.1159 98.2222 15.2861 97.9895 15.3534H97.9878ZM97.7142 14.587H97.2932V15.1243H97.7142C97.9238 15.1243 98.0499 15.0214 98.0499 14.8554C98.0499 14.6806 97.9238 14.587 97.7142 14.587Z" fill="#4C4C4D"/>
</g>
<defs>
<clipPath id="clip0_14_196220">
<rect width="99.1667" height="34" fill="white"/>
</clipPath>
</defs>
</svg>
