<svg width="68" height="34" viewBox="0 0 68 34" fill="none" xmlns="http://www.w3.org/2000/svg">
<g clip-path="url(#clip0_14_196216)">
<path d="M0.000976562 25.0743L6.9812 14.2129H0.827876C0.775729 13.9 0.753381 13.5573 0.753381 13.1774C0.753381 12.8123 0.775729 12.4771 0.827876 12.1717H10.7879L10.9146 12.5069L3.88219 23.3907H10.475C10.5272 23.7334 10.5495 24.091 10.5495 24.4485C10.5495 24.7912 10.5272 25.119 10.475 25.4319H0.127619L0.000976562 25.0743Z" fill="#4C4C4D"/>
<path d="M20.1446 16.6937C20.1446 15.6731 19.8839 14.9729 19.3698 14.5706C18.8558 14.1758 18.1034 13.9746 17.1201 13.9746C16.5167 13.9746 15.9505 14.0193 15.429 14.1162C14.9001 14.213 14.3935 14.3322 13.887 14.4886C13.5592 13.9225 13.3953 13.2371 13.3953 12.4475C13.9838 12.2612 14.6245 12.1122 15.3322 12.0079C16.0399 11.9036 16.7178 11.8515 17.3734 11.8515C19.0942 11.8515 20.4053 12.2463 21.3067 13.0285C22.2007 13.8107 22.6551 15.0697 22.6551 16.7905V25.0893C22.0517 25.2234 21.3216 25.3724 20.4575 25.514C19.5933 25.663 18.7143 25.73 17.8203 25.73C16.9785 25.73 16.2112 25.6555 15.5333 25.4991C14.8554 25.3426 14.2744 25.0968 13.7976 24.7467C13.3208 24.404 12.9558 23.9645 12.6951 23.4281C12.4343 22.8917 12.3077 22.2436 12.3077 21.4912C12.3077 20.7537 12.4567 20.0981 12.7621 19.5394C13.0601 18.9807 13.4698 18.5114 13.9913 18.1464C14.5053 17.7739 15.1013 17.4983 15.7792 17.3195C16.4496 17.1407 17.1573 17.0438 17.9023 17.0438C18.4536 17.0438 18.908 17.0587 19.2581 17.0811C19.6082 17.1034 19.9062 17.1407 20.1521 17.1705V16.6937H20.1446ZM20.1446 19.2042C19.8839 19.167 19.5561 19.1372 19.1613 19.0999C18.7664 19.0627 18.4312 19.0478 18.1556 19.0478C17.0828 19.0478 16.2708 19.2489 15.7121 19.6437C15.1534 20.0386 14.8703 20.642 14.8703 21.454C14.8703 21.968 14.9672 22.3777 15.1534 22.6682C15.3396 22.9588 15.578 23.1823 15.8611 23.3387C16.1442 23.4951 16.4571 23.592 16.8072 23.6218C17.1499 23.659 17.4777 23.6739 17.7905 23.6739C18.1854 23.6739 18.5951 23.6516 19.0197 23.6069C19.4443 23.5622 19.8168 23.5026 20.1446 23.4132V19.2042Z" fill="#4C4C4D"/>
<path d="M25.4486 12.1722C25.62 12.135 25.7987 12.1126 25.9775 12.0977C26.1563 12.0829 26.3426 12.0754 26.5363 12.0754C26.7076 12.0754 26.8864 12.0829 27.0801 12.0977C27.2663 12.1126 27.4525 12.1424 27.6239 12.1722C27.6388 12.2095 27.6611 12.3138 27.6909 12.4926C27.7133 12.6714 27.7431 12.8651 27.7654 13.0736C27.7878 13.2822 27.8176 13.4759 27.8399 13.6696C27.8623 13.8633 27.8772 13.9825 27.8772 14.0346C28.0485 13.759 28.2571 13.4908 28.4955 13.2301C28.7339 12.9693 29.0244 12.7384 29.3596 12.5298C29.6949 12.3212 30.0748 12.1573 30.4994 12.0382C30.924 11.919 31.3934 11.8594 31.9074 11.8594C32.6821 11.8594 33.4047 11.986 34.0677 12.2467C34.7308 12.5075 35.2969 12.9023 35.7737 13.4461C36.2505 13.9899 36.6155 14.6827 36.8837 15.5171C37.1519 16.3514 37.2859 17.3422 37.2859 18.482C37.2859 20.7616 36.6676 22.542 35.4385 23.8233C34.2018 25.1047 32.4586 25.7528 30.2014 25.7528C29.8215 25.7528 29.4341 25.7304 29.0393 25.6783C28.6445 25.6261 28.2943 25.5591 28.0038 25.4697V31.5485C27.7952 31.5858 27.5792 31.6081 27.3408 31.623C27.1099 31.6379 26.8938 31.6454 26.7076 31.6454C26.5214 31.6454 26.3053 31.6379 26.0744 31.623C25.8434 31.6081 25.6274 31.5783 25.4412 31.5485V12.1722H25.4486ZM28.0113 23.2646C28.339 23.3838 28.6743 23.4732 29.017 23.5254C29.3596 23.5775 29.8066 23.5999 30.3653 23.5999C30.9836 23.5999 31.5572 23.503 32.0713 23.3019C32.5853 23.1007 33.0323 22.7953 33.4047 22.3856C33.7772 21.9684 34.0677 21.4469 34.2838 20.8212C34.4998 20.1954 34.6041 19.443 34.6041 18.5863C34.6041 17.2081 34.3508 16.1131 33.8443 15.3011C33.3377 14.4891 32.5033 14.0868 31.3487 14.0868C30.9166 14.0868 30.5069 14.1613 30.1046 14.3177C29.7098 14.4742 29.3522 14.7051 29.0468 15.018C28.7339 15.3309 28.488 15.7182 28.2943 16.195C28.1007 16.6718 28.0113 17.2305 28.0113 17.886V23.2646Z" fill="#4C4C4D"/>
<path d="M40.4743 14.1831H38.7907C38.7535 14.0415 38.7311 13.8851 38.7162 13.7063C38.7014 13.5275 38.6939 13.3487 38.6939 13.1774C38.6939 13.006 38.7014 12.8272 38.7162 12.6485C38.7311 12.4697 38.7609 12.3058 38.7907 12.1717H42.9848V25.4393C42.7986 25.4766 42.5826 25.4989 42.3516 25.5138C42.1207 25.5287 41.9047 25.5362 41.7184 25.5362C41.5471 25.5362 41.3459 25.5287 41.1075 25.5138C40.8766 25.4989 40.6606 25.4691 40.4743 25.4393V14.1831Z" fill="#4C4C4D"/>
<path d="M48.49 19.4353C48.5273 20.8805 48.8998 21.9458 49.6149 22.6163C50.3301 23.2867 51.3879 23.622 52.781 23.622C54.0027 23.622 55.1723 23.4059 56.2748 22.9739C56.4164 23.2346 56.5281 23.5475 56.61 23.92C56.6994 24.2924 56.7441 24.6575 56.7665 25.0225C56.2003 25.2609 55.5746 25.4471 54.8892 25.5663C54.2113 25.6855 53.4514 25.7451 52.6245 25.7451C51.4177 25.7451 50.3822 25.5738 49.5181 25.2385C48.6539 24.9033 47.9462 24.4265 47.3875 23.8157C46.8288 23.2048 46.4191 22.4822 46.1583 21.6404C45.8976 20.806 45.771 19.8897 45.771 18.8841C45.771 17.9007 45.8976 16.9844 46.1434 16.1277C46.3893 15.271 46.7766 14.5335 47.2907 13.9003C47.8047 13.2745 48.4602 12.768 49.2424 12.4029C50.0247 12.0305 50.9558 11.8442 52.0211 11.8442C52.9374 11.8442 53.7345 12.0007 54.4273 12.3136C55.1201 12.6264 55.6938 13.0511 56.1631 13.5949C56.6249 14.1387 56.9825 14.7868 57.2209 15.5318C57.4593 16.2842 57.5859 17.0962 57.5859 17.9752C57.5859 18.2136 57.5785 18.4743 57.5561 18.7351C57.5412 19.0033 57.5189 19.2342 57.504 19.4204H48.49V19.4353ZM55.0605 17.5208C55.0605 17.0366 54.9935 16.5747 54.8669 16.1352C54.7402 15.6957 54.5465 15.3157 54.3007 14.9879C54.0474 14.6602 53.7345 14.3994 53.3471 14.1983C52.9598 13.9972 52.4979 13.9003 51.9615 13.9003C50.9111 13.9003 50.1066 14.2206 49.5404 14.8539C48.9817 15.4945 48.639 16.381 48.5198 17.5208H55.0605Z" fill="#4C4C4D"/>
<path d="M60.4168 12.1717C60.6031 12.1344 60.7893 12.1121 60.9606 12.0972C61.132 12.0823 61.3108 12.0748 61.5044 12.0748C61.6907 12.0748 61.8844 12.0823 62.0706 12.0972C62.2569 12.1121 62.4356 12.1419 62.5846 12.1717C62.6368 12.4324 62.6889 12.7676 62.7411 13.1923C62.7932 13.6169 62.8156 13.9745 62.8156 14.265C63.1806 13.6765 63.6574 13.1699 64.2533 12.7378C64.8493 12.3058 65.6091 12.0897 66.5403 12.0897C66.6819 12.0897 66.8234 12.0972 66.965 12.1046C67.114 12.1121 67.2332 12.127 67.3374 12.1419C67.3747 12.2983 67.397 12.4622 67.4119 12.6336C67.4268 12.8049 67.4343 12.9837 67.4343 13.1774C67.4343 13.386 67.4194 13.602 67.397 13.8255C67.3747 14.049 67.3374 14.265 67.3076 14.4736C67.1661 14.4363 67.0246 14.4214 66.883 14.4214C66.734 14.4214 66.6223 14.4214 66.5329 14.4214C66.071 14.4214 65.624 14.4885 65.1994 14.6151C64.7748 14.7418 64.3949 14.9727 64.0596 15.3005C63.7244 15.6283 63.4562 16.0752 63.2551 16.6489C63.054 17.215 62.9571 17.9525 62.9571 18.8465V25.4393C62.7709 25.4766 62.5548 25.4989 62.3239 25.5138C62.093 25.5287 61.8769 25.5362 61.6907 25.5362C61.5044 25.5362 61.2884 25.5287 61.0575 25.5138C60.8265 25.4989 60.6031 25.4691 60.3945 25.4393V12.1717H60.4168Z" fill="#4C4C4D"/>
<path d="M45.4207 4.36485H42.9177L44.6907 2.59185C44.5491 2.39817 44.3927 2.21193 44.2288 2.04059C44.0575 1.86925 43.8787 1.71281 43.6775 1.57871L41.9046 3.35171V0.848659C41.6736 0.811411 41.4352 0.789062 41.1894 0.789062H41.1819C40.9361 0.789062 40.6977 0.811411 40.4668 0.848659V3.35171L38.6938 1.57871C38.5001 1.72026 38.3139 1.8767 38.1425 2.04059C37.9712 2.21193 37.8222 2.39072 37.6807 2.59185L39.4611 4.36485H36.958C36.958 4.36485 36.8985 4.83417 36.8985 5.08C36.8985 5.32584 36.9208 5.56422 36.958 5.79516H39.4611L37.6881 7.56815C37.9637 7.95553 38.3064 8.29821 38.7012 8.58129L40.4742 6.8083V9.31135C40.7052 9.34859 40.9436 9.37094 41.1894 9.37094H41.1968C41.4427 9.37094 41.6811 9.34859 41.912 9.31135V6.8083L43.685 8.58129C43.8787 8.43975 44.0649 8.28331 44.2363 8.11942C44.4076 7.94808 44.564 7.76929 44.6981 7.56815L42.9251 5.79516H45.4282C45.4654 5.56422 45.4878 5.32584 45.4878 5.08V5.07255C45.4803 4.83417 45.4654 4.59578 45.4207 4.36485ZM42.2621 5.08745C42.2621 5.40778 42.2025 5.71321 42.0982 5.9963C41.8152 6.10059 41.5097 6.16019 41.1894 6.16019C40.8691 6.16019 40.5636 6.10059 40.2805 5.9963C40.1763 5.71321 40.1167 5.40778 40.1167 5.08745V5.08C40.1167 4.75967 40.1763 4.45424 40.2805 4.17116C40.5636 4.06686 40.8691 4.00727 41.1894 4.00727C41.5097 4.00727 41.8152 4.06686 42.0982 4.17116C42.2025 4.45424 42.2621 4.75967 42.2621 5.08745Z" fill="#4C4C4D"/>
</g>
<defs>
<clipPath id="clip0_14_196216">
<rect width="68" height="34" fill="white"/>
</clipPath>
</defs>
</svg>
