<svg width="70" height="34" viewBox="0 0 70 34" fill="none" xmlns="http://www.w3.org/2000/svg">
<g clip-path="url(#clip0_14_196224)">
<path fill-rule="evenodd" clip-rule="evenodd" d="M56.4593 14.5949C56.7244 15.0522 56.8111 15.5726 56.8397 16.1575L56.8773 16.9372V22.389L56.9158 23.1695C56.9927 24.4441 57.9327 25.3866 59.2171 25.4668L59.9935 25.5052V16.9372L60.032 16.1575C60.0639 15.5791 60.1498 15.049 60.4189 14.5884C60.6932 14.1159 61.0869 13.724 61.5606 13.4518C62.0343 13.1797 62.5712 13.037 63.1174 13.038C63.6637 13.039 64.2001 13.1836 64.6728 13.4575C65.1454 13.7314 65.5377 14.1248 65.8103 14.5982C66.0753 15.0555 66.158 15.5856 66.1899 16.1575L66.2283 16.9347V22.389L66.2668 23.1695C66.347 24.4507 67.2796 25.3931 68.5681 25.4668L69.3445 25.5052V16.1575C69.3445 14.5046 68.688 12.9193 67.5195 11.7503C66.3509 10.5812 64.7659 9.92416 63.113 9.92351C62.2283 9.92258 61.3536 10.1105 60.5473 10.4746C59.741 10.8387 59.0217 11.3707 58.4375 12.0351C57.853 11.371 57.1337 10.8391 56.3274 10.4749C55.5212 10.1106 54.6467 9.92239 53.762 9.9227C52.4677 9.9227 51.2668 10.3154 50.2719 10.9936C49.6649 10.3162 48.3068 9.9227 47.5272 9.9227V25.5052L48.3069 25.4668C49.6109 25.3809 50.5534 24.4638 50.6041 23.1695L50.6458 22.389V16.9372L50.6843 16.1575C50.717 15.5693 50.7988 15.0522 51.0647 14.5916C51.3392 14.1195 51.7327 13.7276 52.206 13.4552C52.6794 13.1827 53.2159 13.0392 53.762 13.0389C54.3085 13.039 54.8455 13.1828 55.3189 13.4559C55.7923 13.729 56.1856 14.1218 56.4593 14.5949ZM3.11618 25.4676L3.89583 25.5052H15.5825L15.5441 24.728C15.4385 23.4469 14.5312 22.5109 13.246 22.4275L12.4663 22.389H5.45515L14.8029 13.0381L14.7644 12.2617C14.7039 10.9674 13.7581 10.0323 12.4663 9.96115L11.6867 9.92597L0 9.9227L0.0384511 10.7024C0.140715 11.9712 1.06109 12.9268 2.3357 13.0004L3.11618 13.0389H10.1274L0.779657 22.3899L0.818108 23.1695C0.895011 24.4539 1.82193 25.3841 3.11618 25.4668V25.4676ZM44.4683 12.2036C45.1919 12.9271 45.7659 13.786 46.1576 14.7313C46.5492 15.6767 46.7508 16.6899 46.7508 17.7131C46.7508 18.7364 46.5492 19.7496 46.1576 20.695C45.7659 21.6403 45.1919 22.4992 44.4683 23.2227C43.0063 24.6835 41.0242 25.504 38.9575 25.504C36.8908 25.504 34.9087 24.6835 33.4467 23.2227C30.4042 20.1801 30.4042 15.2461 33.4467 12.2036C34.1697 11.4804 35.028 10.9066 35.9727 10.5151C36.9174 10.1236 37.93 9.92204 38.9526 9.92188C39.9769 9.92117 40.9912 10.1224 41.9377 10.5141C42.8841 10.9057 43.744 11.4801 44.4683 12.2044V12.2036ZM42.2635 14.41C43.1399 15.2871 43.6321 16.4762 43.6321 17.716C43.6321 18.9558 43.1399 20.1449 42.2635 21.022C41.3865 21.8983 40.1973 22.3906 38.9575 22.3906C37.7177 22.3906 36.5286 21.8983 35.6515 21.022C34.7752 20.1449 34.2829 18.9558 34.2829 17.716C34.2829 16.4762 34.7752 15.2871 35.6515 14.41C36.5286 13.5337 37.7177 13.0414 38.9575 13.0414C40.1973 13.0414 41.3865 13.5337 42.2635 14.41ZM22.6002 9.92188C23.6229 9.92214 24.6355 10.1239 25.5802 10.5155C26.5249 10.9071 27.3832 11.481 28.1061 12.2044C31.1495 15.2461 31.1495 20.181 28.1061 23.2227C26.6442 24.6835 24.662 25.504 22.5953 25.504C20.5287 25.504 18.5465 24.6835 17.0846 23.2227C14.042 20.1801 14.042 15.2461 17.0846 12.2036C17.8075 11.4804 18.6659 10.9066 19.6106 10.5151C20.5553 10.1236 21.5678 9.92204 22.5904 9.92188H22.6002ZM25.9013 14.4084C26.7779 15.2854 27.2704 16.4747 27.2704 17.7148C27.2704 18.9548 26.7779 20.1441 25.9013 21.0212C25.0243 21.8975 23.8352 22.3898 22.5953 22.3898C21.3555 22.3898 20.1664 21.8975 19.2894 21.0212C18.413 20.1441 17.9207 18.955 17.9207 17.7152C17.9207 16.4753 18.413 15.2862 19.2894 14.4092C20.1664 13.5328 21.3555 13.0406 22.5953 13.0406C23.8352 13.0406 25.0243 13.5328 25.9013 14.4092V14.4084Z" fill="#4C4C4D"/>
</g>
<defs>
<clipPath id="clip0_14_196224">
<rect width="69.4166" height="34" fill="white"/>
</clipPath>
</defs>
</svg>
